<svg width="127" height="36" viewBox="0 0 127 36" fill="none" xmlns="http://www.w3.org/2000/svg">
<path d="M39.1562 16.6211L37.2031 18.584C37.1055 18.3105 36.972 18.0664 36.8027 17.8516C36.6335 17.6302 36.4414 17.4447 36.2266 17.2949C36.0182 17.1452 35.7904 17.0312 35.543 16.9531C35.2956 16.875 35.0417 16.8359 34.7812 16.8359C34.4167 16.8359 34.0716 16.9108 33.7461 17.0605C33.4271 17.2103 33.1471 17.4219 32.9062 17.6953C32.6719 17.9622 32.4863 18.2812 32.3496 18.6523C32.2129 19.0234 32.1445 19.4336 32.1445 19.8828C32.1445 20.2474 32.2129 20.5892 32.3496 20.9082C32.4863 21.2272 32.6719 21.5072 32.9062 21.748C33.1471 21.9889 33.4271 22.1777 33.7461 22.3145C34.0716 22.4512 34.4167 22.5195 34.7812 22.5195C35.0417 22.5195 35.2923 22.4837 35.5332 22.4121C35.7741 22.3405 35.9987 22.2396 36.207 22.1094C36.4219 21.9727 36.6107 21.8099 36.7734 21.6211C36.9427 21.4258 37.0794 21.2109 37.1836 20.9766L39.1367 22.9395C38.8893 23.291 38.6029 23.6068 38.2773 23.8867C37.9583 24.1667 37.61 24.4043 37.2324 24.5996C36.8613 24.7949 36.4674 24.9414 36.0508 25.0391C35.6406 25.1432 35.2174 25.1953 34.7812 25.1953C34.0456 25.1953 33.3522 25.0586 32.7012 24.7852C32.0566 24.5052 31.4902 24.1243 31.002 23.6426C30.5202 23.1608 30.1393 22.5977 29.8594 21.9531C29.5794 21.3086 29.4395 20.6185 29.4395 19.8828C29.4395 19.082 29.5794 18.3333 29.8594 17.6367C30.1393 16.9401 30.5202 16.3346 31.002 15.8203C31.4902 15.2995 32.0566 14.8893 32.7012 14.5898C33.3522 14.2904 34.0456 14.1406 34.7812 14.1406C35.2174 14.1406 35.6439 14.196 36.0605 14.3066C36.4837 14.4173 36.8841 14.5801 37.2617 14.7949C37.6458 15.0033 37.9974 15.2604 38.3164 15.5664C38.6419 15.8724 38.9219 16.224 39.1562 16.6211ZM50.416 19.6777C50.416 20.459 50.276 21.1882 49.9961 21.8652C49.7161 22.5358 49.3353 23.1185 48.8535 23.6133C48.3717 24.1016 47.8053 24.4889 47.1543 24.7754C46.5098 25.0553 45.8164 25.1953 45.0742 25.1953C44.3385 25.1953 43.6452 25.0553 42.9941 24.7754C42.3496 24.4889 41.7832 24.1016 41.2949 23.6133C40.8132 23.1185 40.4323 22.5358 40.1523 21.8652C39.8724 21.1882 39.7324 20.459 39.7324 19.6777C39.7324 18.8835 39.8724 18.1478 40.1523 17.4707C40.4323 16.7936 40.8132 16.2109 41.2949 15.7227C41.7832 15.2279 42.3496 14.8405 42.9941 14.5605C43.6452 14.2806 44.3385 14.1406 45.0742 14.1406C45.8164 14.1406 46.5098 14.2741 47.1543 14.541C47.8053 14.8014 48.3717 15.1758 48.8535 15.6641C49.3353 16.1458 49.7161 16.7285 49.9961 17.4121C50.276 18.0892 50.416 18.8444 50.416 19.6777ZM47.7305 19.6777C47.7305 19.248 47.6589 18.8607 47.5156 18.5156C47.3789 18.1641 47.1901 17.8646 46.9492 17.6172C46.7083 17.3633 46.4251 17.1712 46.0996 17.041C45.7806 16.9043 45.4388 16.8359 45.0742 16.8359C44.7096 16.8359 44.3646 16.9043 44.0391 17.041C43.7201 17.1712 43.4401 17.3633 43.1992 17.6172C42.9648 17.8646 42.7793 18.1641 42.6426 18.5156C42.5059 18.8607 42.4375 19.248 42.4375 19.6777C42.4375 20.0814 42.5059 20.4557 42.6426 20.8008C42.7793 21.1458 42.9648 21.4453 43.1992 21.6992C43.4401 21.9531 43.7201 22.1549 44.0391 22.3047C44.3646 22.4479 44.7096 22.5195 45.0742 22.5195C45.4388 22.5195 45.7806 22.4512 46.0996 22.3145C46.4251 22.1777 46.7083 21.9857 46.9492 21.7383C47.1901 21.4909 47.3789 21.1914 47.5156 20.8398C47.6589 20.4883 47.7305 20.1009 47.7305 19.6777ZM54.5762 25H51.8906V10.3809H54.5762V25ZM59.7617 11.6992C59.7617 11.9466 59.7129 12.1777 59.6152 12.3926C59.5241 12.6074 59.3971 12.7962 59.2344 12.959C59.0716 13.1152 58.8796 13.2422 58.6582 13.3398C58.4434 13.431 58.2122 13.4766 57.9648 13.4766C57.7174 13.4766 57.4831 13.431 57.2617 13.3398C57.0469 13.2422 56.8581 13.1152 56.6953 12.959C56.5391 12.7962 56.4121 12.6074 56.3145 12.3926C56.2233 12.1777 56.1777 11.9466 56.1777 11.6992C56.1777 11.4583 56.2233 11.2305 56.3145 11.0156C56.4121 10.7943 56.5391 10.6055 56.6953 10.4492C56.8581 10.2865 57.0469 10.1595 57.2617 10.0684C57.4831 9.9707 57.7174 9.92188 57.9648 9.92188C58.2122 9.92188 58.4434 9.9707 58.6582 10.0684C58.8796 10.1595 59.0716 10.2865 59.2344 10.4492C59.3971 10.6055 59.5241 10.7943 59.6152 11.0156C59.7129 11.2305 59.7617 11.4583 59.7617 11.6992ZM59.3027 25H56.6172V14.541H59.3027V25ZM71.8125 19.6777C71.8125 20.498 71.6725 21.2467 71.3926 21.9238C71.1126 22.6009 70.7318 23.1836 70.25 23.6719C69.7682 24.1536 69.2018 24.528 68.5508 24.7949C67.9062 25.0618 67.2129 25.1953 66.4707 25.1953C65.735 25.1953 65.0417 25.0586 64.3906 24.7852C63.7461 24.5117 63.1797 24.1309 62.6914 23.6426C62.2096 23.1543 61.8288 22.5749 61.5488 21.9043C61.2689 21.2272 61.1289 20.485 61.1289 19.6777V10.3809H63.8047V15.2637C63.9479 15.0814 64.1204 14.9186 64.3223 14.7754C64.5306 14.6322 64.752 14.515 64.9863 14.4238C65.2272 14.3327 65.4746 14.2643 65.7285 14.2188C65.9824 14.1667 66.2298 14.1406 66.4707 14.1406C67.2129 14.1406 67.9062 14.2806 68.5508 14.5605C69.2018 14.834 69.7682 15.2181 70.25 15.7129C70.7318 16.2077 71.1126 16.7936 71.3926 17.4707C71.6725 18.1413 71.8125 18.877 71.8125 19.6777ZM69.127 19.6777C69.127 19.2741 69.0553 18.8997 68.9121 18.5547C68.7754 18.2031 68.5866 17.9004 68.3457 17.6465C68.1048 17.3926 67.8216 17.194 67.4961 17.0508C67.1771 16.9076 66.8353 16.8359 66.4707 16.8359C66.1061 16.8359 65.7611 16.9173 65.4355 17.0801C65.1165 17.2363 64.8366 17.4479 64.5957 17.7148C64.3548 17.9753 64.166 18.278 64.0293 18.623C63.8926 18.9616 63.8242 19.3132 63.8242 19.6777C63.8242 20.0814 63.8926 20.4557 64.0293 20.8008C64.166 21.1458 64.3548 21.4453 64.5957 21.6992C64.8366 21.9531 65.1165 22.1549 65.4355 22.3047C65.7611 22.4479 66.1061 22.5195 66.4707 22.5195C66.8353 22.5195 67.1771 22.4479 67.4961 22.3047C67.8216 22.1549 68.1048 21.9531 68.3457 21.6992C68.5866 21.4453 68.7754 21.1458 68.9121 20.8008C69.0553 20.4557 69.127 20.0814 69.127 19.6777ZM75.9629 25H73.2969V14.541H73.9414L74.8203 15.7812C75.25 15.3906 75.7383 15.0911 76.2852 14.8828C76.832 14.668 77.3984 14.5605 77.9844 14.5605H80.3379V17.2168H77.9844C77.7044 17.2168 77.4408 17.2689 77.1934 17.373C76.946 17.4772 76.7311 17.6204 76.5488 17.8027C76.3665 17.985 76.2233 18.1999 76.1191 18.4473C76.015 18.6947 75.9629 18.9583 75.9629 19.2383V25ZM84.7227 11.6992C84.7227 11.9466 84.6738 12.1777 84.5762 12.3926C84.485 12.6074 84.3581 12.7962 84.1953 12.959C84.0326 13.1152 83.8405 13.2422 83.6191 13.3398C83.4043 13.431 83.1732 13.4766 82.9258 13.4766C82.6784 13.4766 82.444 13.431 82.2227 13.3398C82.0078 13.2422 81.819 13.1152 81.6562 12.959C81.5 12.7962 81.373 12.6074 81.2754 12.3926C81.1842 12.1777 81.1387 11.9466 81.1387 11.6992C81.1387 11.4583 81.1842 11.2305 81.2754 11.0156C81.373 10.7943 81.5 10.6055 81.6562 10.4492C81.819 10.2865 82.0078 10.1595 82.2227 10.0684C82.444 9.9707 82.6784 9.92188 82.9258 9.92188C83.1732 9.92188 83.4043 9.9707 83.6191 10.0684C83.8405 10.1595 84.0326 10.2865 84.1953 10.4492C84.3581 10.6055 84.485 10.7943 84.5762 11.0156C84.6738 11.2305 84.7227 11.4583 84.7227 11.6992ZM84.2637 25H81.5781V14.541H84.2637V25ZM91.5488 25C90.9043 25 90.2988 24.8796 89.7324 24.6387C89.166 24.3913 88.668 24.056 88.2383 23.6328C87.8151 23.2031 87.4798 22.7051 87.2324 22.1387C86.9915 21.5723 86.8711 20.9668 86.8711 20.3223V17.2168H85.5723V14.5605H86.8711V10.3809H89.5273V14.5605H93.5703V17.2168H89.5273V20.3223C89.5273 20.6022 89.5794 20.8659 89.6836 21.1133C89.7878 21.3542 89.931 21.5658 90.1133 21.748C90.2956 21.9303 90.5104 22.0768 90.7578 22.1875C91.0052 22.2917 91.2689 22.3438 91.5488 22.3438H93.5703V25H91.5488ZM99.2344 22.4414C99.3385 22.474 99.4427 22.4967 99.5469 22.5098C99.651 22.5163 99.7552 22.5195 99.8594 22.5195C100.12 22.5195 100.37 22.4837 100.611 22.4121C100.852 22.3405 101.077 22.2396 101.285 22.1094C101.5 21.9727 101.689 21.8099 101.852 21.6211C102.021 21.4258 102.158 21.2109 102.262 20.9766L104.215 22.9395C103.967 23.291 103.681 23.6068 103.355 23.8867C103.036 24.1667 102.688 24.4043 102.311 24.5996C101.939 24.7949 101.546 24.9414 101.129 25.0391C100.719 25.1432 100.296 25.1953 99.8594 25.1953C99.1237 25.1953 98.4303 25.0586 97.7793 24.7852C97.1348 24.5117 96.5684 24.1309 96.0801 23.6426C95.5983 23.1543 95.2174 22.5749 94.9375 21.9043C94.6576 21.2272 94.5176 20.485 94.5176 19.6777C94.5176 18.8509 94.6576 18.0957 94.9375 17.4121C95.2174 16.7285 95.5983 16.1458 96.0801 15.6641C96.5684 15.1823 97.1348 14.8079 97.7793 14.541C98.4303 14.2741 99.1237 14.1406 99.8594 14.1406C100.296 14.1406 100.722 14.1927 101.139 14.2969C101.555 14.401 101.949 14.5508 102.32 14.7461C102.698 14.9414 103.049 15.1823 103.375 15.4688C103.701 15.7487 103.987 16.0645 104.234 16.416L99.2344 22.4414ZM100.602 16.9434C100.478 16.8978 100.354 16.8685 100.23 16.8555C100.113 16.8424 99.9896 16.8359 99.8594 16.8359C99.4948 16.8359 99.1497 16.9043 98.8242 17.041C98.5052 17.1712 98.2253 17.36 97.9844 17.6074C97.75 17.8548 97.5645 18.1543 97.4277 18.5059C97.291 18.8509 97.2227 19.2415 97.2227 19.6777C97.2227 19.7754 97.2259 19.8861 97.2324 20.0098C97.2454 20.1335 97.2617 20.2604 97.2812 20.3906C97.3073 20.5143 97.3366 20.6348 97.3691 20.752C97.4017 20.8691 97.444 20.9733 97.4961 21.0645L100.602 16.9434ZM114.645 16.6211L112.691 18.584C112.594 18.3105 112.46 18.0664 112.291 17.8516C112.122 17.6302 111.93 17.4447 111.715 17.2949C111.507 17.1452 111.279 17.0312 111.031 16.9531C110.784 16.875 110.53 16.8359 110.27 16.8359C109.905 16.8359 109.56 16.9108 109.234 17.0605C108.915 17.2103 108.635 17.4219 108.395 17.6953C108.16 17.9622 107.975 18.2812 107.838 18.6523C107.701 19.0234 107.633 19.4336 107.633 19.8828C107.633 20.2474 107.701 20.5892 107.838 20.9082C107.975 21.2272 108.16 21.5072 108.395 21.748C108.635 21.9889 108.915 22.1777 109.234 22.3145C109.56 22.4512 109.905 22.5195 110.27 22.5195C110.53 22.5195 110.781 22.4837 111.021 22.4121C111.262 22.3405 111.487 22.2396 111.695 22.1094C111.91 21.9727 112.099 21.8099 112.262 21.6211C112.431 21.4258 112.568 21.2109 112.672 20.9766L114.625 22.9395C114.378 23.291 114.091 23.6068 113.766 23.8867C113.447 24.1667 113.098 24.4043 112.721 24.5996C112.35 24.7949 111.956 24.9414 111.539 25.0391C111.129 25.1432 110.706 25.1953 110.27 25.1953C109.534 25.1953 108.84 25.0586 108.189 24.7852C107.545 24.5052 106.979 24.1243 106.49 23.6426C106.008 23.1608 105.628 22.5977 105.348 21.9531C105.068 21.3086 104.928 20.6185 104.928 19.8828C104.928 19.082 105.068 18.3333 105.348 17.6367C105.628 16.9401 106.008 16.3346 106.49 15.8203C106.979 15.2995 107.545 14.8893 108.189 14.5898C108.84 14.2904 109.534 14.1406 110.27 14.1406C110.706 14.1406 111.132 14.196 111.549 14.3066C111.972 14.4173 112.372 14.5801 112.75 14.7949C113.134 15.0033 113.486 15.2604 113.805 15.5664C114.13 15.8724 114.41 16.224 114.645 16.6211ZM118.619 25H115.953V10.3809H118.619V15C118.938 14.7591 119.267 14.5898 119.605 14.4922C119.944 14.388 120.289 14.3359 120.641 14.3359C121.285 14.3359 121.891 14.4596 122.457 14.707C123.023 14.9479 123.515 15.2832 123.932 15.7129C124.355 16.1361 124.687 16.6341 124.928 17.207C125.175 17.7734 125.299 18.3789 125.299 19.0234V25H122.613V19.0234H122.633C122.633 18.75 122.581 18.4928 122.477 18.252C122.372 18.0046 122.229 17.7897 122.047 17.6074C121.865 17.4251 121.653 17.2819 121.412 17.1777C121.171 17.0736 120.914 17.0215 120.641 17.0215C120.361 17.0215 120.097 17.0736 119.85 17.1777C119.602 17.2819 119.387 17.4251 119.205 17.6074C119.023 17.7897 118.88 18.0046 118.775 18.252C118.671 18.4928 118.619 18.75 118.619 19.0234V25Z" fill="white"/>
<path d="M13.7228 10.2438C14.1254 10.4744 14.3994 10.5885 14.6255 9.9186C14.3587 6.2538 15.8406 4.06438 20.4752 4.53485C20.7303 4.48653 21.4097 4.5953 21.053 3.9206C16.9283 1.29954 14.3204 3.71183 14.0117 3.9206C12.8679 4.90803 12.0211 7.35555 13.7228 10.2438Z" fill="white"/>
<path d="M22.4563 7.2467C22.2398 7.43474 22.1367 7.60215 22.6605 7.65549C25.3692 7.40857 25.0872 9.00559 24.4775 10.8047C24.4595 11.0504 24.3073 11.3503 24.7063 11.1466C25.4264 10.0654 25.2959 8.98418 26.5778 7.90296C29.2064 5.20067 32.154 3.24209 34.993 1.217C35.031 1.0172 34.9119 0.974523 34.7121 1.01261C32.0865 2.71165 29.4608 4.72859 26.8352 6.10975L24.3202 6.76126L22.4563 7.2467Z" fill="white" stroke="white"/>
<path d="M19.4105 13.297C19.6239 12.9698 19.2195 12.7411 18.9892 13.2203C18.5487 13.7832 18.2885 14.5333 18.4275 15.8264C19.0038 18.5548 19.3062 20.9407 18.5321 21.9802C16.8986 24.6365 13.4575 26.4955 11.1761 29.2654C10.6182 30.2333 10.0555 31.1732 9.56755 32.5613L8.87816 35.244C9.02925 35.5893 9.14274 35.4077 9.26115 35.2951C10.2342 30.2096 14.0495 28.3425 17.5083 26.0717C19.5737 24.4122 22.2913 21.9962 20.4446 18.7646C19.9006 17.0346 18.246 15.8207 19.4105 13.297V13.297Z" fill="white" stroke="white"/>
<path d="M13.2655 14.8615C10.2778 11.8092 5.2888 11.753 1.21392 9.54719C0.41607 9.12449 -0.519295 8.89822 0.3458 10.3392L3.25656 17.8253C5.67368 21.4466 8.0908 20.491 10.5079 20.5846C11.4495 19.6267 10.8489 18.834 9.89513 18.745C4.85772 20.7853 4.31537 15.0737 2.18417 12.1021C2.0192 11.7561 1.67777 11.3042 2.8225 11.7445C5.99385 13.4467 9.00227 12.9019 11.8612 15.8579C12.4566 16.3602 13.6838 15.8206 13.2655 14.8615V14.8615Z" fill="white"/>
</svg>
