<svg width="127" height="33" fill="none" xmlns="http://www.w3.org/2000/svg"><path d="M39.156 14.621l-1.953 1.963a2.567 2.567 0 0 0-.4-.732 2.587 2.587 0 0 0-1.26-.899 2.516 2.516 0 0 0-1.797.107c-.319.15-.599.362-.84.635a3.01 3.01 0 0 0-.556.957 3.537 3.537 0 0 0-.206 1.23c0 .365.069.707.206 1.026.136.32.322.6.556.84.241.24.521.43.84.566.326.137.67.206 1.035.206.26 0 .511-.036.752-.108.241-.072.466-.172.674-.303a2.579 2.579 0 0 0 .977-1.133l1.953 1.963a5.162 5.162 0 0 1-.86.948 5.198 5.198 0 0 1-2.226 1.152c-.41.104-.834.156-1.27.156a5.317 5.317 0 0 1-2.08-.41 5.536 5.536 0 0 1-1.699-1.142 5.413 5.413 0 0 1-1.143-1.69 5.139 5.139 0 0 1-.42-2.07c0-.801.14-1.55.42-2.246.28-.697.661-1.302 1.143-1.817a5.465 5.465 0 0 1 1.7-1.23c.65-.3 1.344-.45 2.08-.45.435 0 .862.056 1.279.167.423.11.823.273 1.2.488.385.208.736.465 1.055.771.326.306.606.658.84 1.055zm11.26 3.057c0 .781-.14 1.51-.42 2.187-.28.67-.66 1.254-1.143 1.748a5.438 5.438 0 0 1-1.699 1.162c-.644.28-1.338.42-2.08.42a5.21 5.21 0 0 1-2.08-.42 5.593 5.593 0 0 1-1.7-1.162 5.534 5.534 0 0 1-1.142-1.748 5.669 5.669 0 0 1-.42-2.187c0-.794.14-1.53.42-2.207a5.39 5.39 0 0 1 1.143-1.748 5.37 5.37 0 0 1 1.7-1.163 5.21 5.21 0 0 1 2.08-.42c.741 0 1.435.134 2.08.401.65.26 1.217.635 1.698 1.123a5.253 5.253 0 0 1 1.143 1.748c.28.677.42 1.432.42 2.266zm-2.685 0c0-.43-.072-.817-.215-1.162a2.643 2.643 0 0 0-.567-.899 2.372 2.372 0 0 0-.85-.576 2.576 2.576 0 0 0-1.025-.205c-.364 0-.71.068-1.035.205-.319.13-.599.322-.84.576-.234.248-.42.547-.556.899a3.132 3.132 0 0 0-.206 1.162c0 .403.069.778.206 1.123.136.345.322.644.556.898.241.254.521.456.84.606.326.143.67.215 1.035.215.365 0 .707-.069 1.026-.206.325-.136.608-.328.85-.576.24-.247.429-.547.566-.898a3.05 3.05 0 0 0 .215-1.162zM54.575 23h-2.685V8.38h2.685V23zm5.186-13.3c0 .247-.05.478-.147.693a1.772 1.772 0 0 1-.38.566 1.973 1.973 0 0 1-.577.38 1.756 1.756 0 0 1-.693.138c-.248 0-.482-.046-.703-.137a2.014 2.014 0 0 1-.567-.381 2.014 2.014 0 0 1-.38-.566 1.756 1.756 0 0 1-.137-.694c0-.24.045-.469.137-.683a1.772 1.772 0 0 1 .947-.947c.221-.098.455-.147.703-.147.247 0 .478.049.693.146.222.092.414.218.576.381.163.156.29.345.381.567.098.214.147.442.147.683zm-.46 13.3h-2.685V12.541h2.686V23zm12.51-5.322c0 .82-.14 1.569-.42 2.246a5.39 5.39 0 0 1-1.142 1.748 5.125 5.125 0 0 1-1.7 1.123c-.644.267-1.337.4-2.08.4a5.317 5.317 0 0 1-2.08-.41 5.316 5.316 0 0 1-1.699-1.142 5.416 5.416 0 0 1-1.142-1.739 5.773 5.773 0 0 1-.42-2.226V8.38h2.676v4.883c.143-.183.315-.345.517-.489.209-.143.43-.26.664-.351.241-.091.489-.16.742-.205.254-.052.502-.078.743-.078.742 0 1.435.14 2.08.42a5.104 5.104 0 0 1 1.699 1.152c.482.495.863 1.08 1.143 1.758.28.67.42 1.406.42 2.207zm-2.685 0a2.9 2.9 0 0 0-.215-1.123 2.75 2.75 0 0 0-.566-.909 2.604 2.604 0 0 0-1.875-.81c-.365 0-.71.081-1.035.244a2.753 2.753 0 0 0-.84.635c-.241.26-.43.563-.567.908-.136.339-.205.69-.205 1.055 0 .403.069.778.205 1.123a2.77 2.77 0 0 0 1.406 1.504c.326.143.671.214 1.036.214.364 0 .706-.071 1.025-.214.326-.15.609-.352.85-.606.24-.254.43-.553.566-.898.143-.345.215-.72.215-1.123zM75.963 23h-2.666V12.541h.644l.88 1.24c.429-.39.917-.69 1.464-.898a4.607 4.607 0 0 1 1.7-.322h2.353v2.656h-2.354a2.018 2.018 0 0 0-1.435.586 2.018 2.018 0 0 0-.586 1.436V23zm8.76-13.3c0 .247-.05.478-.147.693a1.773 1.773 0 0 1-.38.566 1.972 1.972 0 0 1-.577.38 1.755 1.755 0 0 1-.693.138c-.248 0-.482-.046-.703-.137a2.013 2.013 0 0 1-.567-.381 2.014 2.014 0 0 1-.38-.566 1.756 1.756 0 0 1-.137-.694c0-.24.045-.469.136-.683a1.772 1.772 0 0 1 .947-.947c.222-.098.456-.147.704-.147.247 0 .478.049.693.146.222.092.414.218.576.381.163.156.29.345.381.567.098.214.147.442.147.683zm-.46 13.3h-2.685V12.541h2.686V23zm7.286 0c-.645 0-1.25-.12-1.817-.361a4.909 4.909 0 0 1-1.494-1.006 4.909 4.909 0 0 1-1.006-1.494 4.592 4.592 0 0 1-.36-1.817v-3.105h-1.3V12.56h1.3V8.38h2.655v4.18h4.043v2.657h-4.043v3.105c0 .28.052.544.157.791.104.241.247.453.43.635.182.182.396.329.644.44.247.104.51.156.79.156h2.022V23H91.55zm7.685-2.559c.105.033.209.056.313.069.104.006.208.01.312.01.261 0 .511-.036.752-.108a2.556 2.556 0 0 0 1.241-.791 2.58 2.58 0 0 0 .41-.644l1.953 1.962a5.173 5.173 0 0 1-.86.948 5.209 5.209 0 0 1-2.226 1.152c-.41.104-.833.156-1.27.156-.735 0-1.429-.136-2.08-.41a5.316 5.316 0 0 1-1.699-1.142 5.414 5.414 0 0 1-1.142-1.739 5.773 5.773 0 0 1-.42-2.226c0-.827.14-1.582.42-2.266.28-.684.66-1.266 1.142-1.748a5.26 5.26 0 0 1 1.7-1.123 5.43 5.43 0 0 1 2.08-.4 5.255 5.255 0 0 1 2.46.605 5.23 5.23 0 0 1 1.055.723c.326.28.612.596.859.947l-5 6.025zm1.368-5.498a1.54 1.54 0 0 0-.372-.088 3.332 3.332 0 0 0-.37-.02c-.365 0-.71.07-1.036.206-.319.13-.599.319-.84.566-.234.248-.42.547-.556.899a3.16 3.16 0 0 0-.205 1.172c0 .097.003.208.01.332.012.123.029.25.048.38.026.124.056.245.088.362.033.117.075.221.127.313l3.106-4.122zm14.043-.322l-1.954 1.963a2.558 2.558 0 0 0-.4-.732 2.578 2.578 0 0 0-1.26-.899 2.511 2.511 0 0 0-1.797.107 2.55 2.55 0 0 0-.839.635c-.235.267-.42.586-.557.957a3.53 3.53 0 0 0-.205 1.23c0 .365.068.707.205 1.026.137.32.322.6.557.84.24.24.52.43.839.566a2.65 2.65 0 0 0 1.036.206c.26 0 .511-.036.751-.108a2.556 2.556 0 0 0 1.241-.791 2.58 2.58 0 0 0 .41-.644l1.953 1.962a5.168 5.168 0 0 1-.859.948 5.215 5.215 0 0 1-2.227 1.152c-.41.104-.833.156-1.269.156a5.32 5.32 0 0 1-2.081-.41 5.552 5.552 0 0 1-1.699-1.142 5.41 5.41 0 0 1-1.142-1.69 5.139 5.139 0 0 1-.42-2.07c0-.801.14-1.55.42-2.246.28-.697.66-1.302 1.142-1.817a5.48 5.48 0 0 1 1.699-1.23c.651-.3 1.345-.45 2.081-.45.436 0 .862.056 1.279.167.423.11.823.273 1.201.488.384.208.736.465 1.055.771.325.306.605.658.84 1.055zM118.619 23h-2.666V8.38h2.666V13c.319-.24.648-.41.986-.508a3.505 3.505 0 0 1 1.036-.156c.644 0 1.25.124 1.816.371.566.24 1.058.576 1.475 1.006.423.423.755.921.996 1.494.247.566.371 1.172.371 1.816V23h-2.686v-5.977h.02a2.016 2.016 0 0 0-1.221-1.846 1.923 1.923 0 0 0-.771-.155 2.017 2.017 0 0 0-1.436.585 2.016 2.016 0 0 0-.586 1.416V23zM13.723 8.244c.402.23.676.345.902-.325-.266-3.665 1.216-5.855 5.85-5.384.255-.048.935.06.578-.614-4.125-2.621-6.733-.21-7.041 0-1.144.987-1.99 3.435-.29 6.323zM21.456 6.247c-.216.188-.32.355.204.408 2.71-.246 2.427 1.35 1.817 3.15-.018.245-.17.545.23.342.72-1.082.589-2.163 1.87-3.244 2.63-2.702 5.577-4.66 8.416-6.686.038-.2-.081-.242-.28-.204-2.627 1.699-5.252 3.716-7.878 5.097l-2.515.651-1.864.486zM19.41 10.297c.214-.327-.19-.556-.42-.077-.441.563-.701 1.313-.563 2.606.577 2.729.88 5.115.105 6.154-1.633 2.657-5.075 4.515-7.356 7.285-.558.968-1.12 1.908-1.608 3.296l-.69 2.683c.151.345.265.164.383.051.973-5.085 4.789-6.953 8.247-9.223 2.066-1.66 4.783-4.076 2.937-7.307-.544-1.73-2.199-2.944-1.035-5.468zM13.265 12.861C10.278 9.81 5.29 9.753 1.214 7.547.416 7.124-.52 6.898.346 8.34l2.91 7.486c2.418 3.622 4.835 2.666 7.252 2.76.942-.958.34-1.751-.613-1.84-5.037 2.04-5.58-3.671-7.71-6.643-.166-.346-.507-.798.637-.358 3.172 1.703 6.18 1.158 9.04 4.114.595.502 1.822-.037 1.403-.997z" fill="#fff"/></svg>