<svg xmlns="http://www.w3.org/2000/svg" width="125" height="32" viewBox="0 0 125.3 32.4"><g mix-blend-mode="source-over"><path d="M39.2 14.6l-2 2a2.6 2.6 0 0 0-0.4-0.7 2.6 2.6 0 0 0-1.3-0.9 2.5 2.5 0 0 0-1.8c-0.3-0.6-0.8a3 3 0 0 0-0.6 3.5 3.5 0 0 0-0.2 1.2c0 0.4 1 1 0 0.5 0-0.1-0.1-0.2-0.3a2.6 2.6 0 0 0 1-1.1l2 2a5.2 5.2 0 0 1-0.9 5.2 5.2 0 0 1-2.2 1.2c-0.4-0.8-1.3a5.3 5.3 0 0 1-2.1-0.4 5.5 5.5 0 0 1-1.7-1.1 5.4 5.4 0 0 1-1.1-1.7 5.1 5.1 0 0 1-0.4-2.1c0-0.8-1.5-2.2-0.7-1.3 1.1-1.8a5.5 5.5 0 0 1 1.7-1.2c0.7-0.3 1.3-0.4 2.1-0.4 0 0.9 1.3 1.2 1.1 1.1zm11.3 3.1c0 0.8-0.1 1.5-0.4 2.2-0.3-0.7 1.3-1.1 1.7a5.4 5.4 0 0 1-1.7 1.2c-0.6-1.3-2.1a5.2 5.2 0 0 1-2.1-0.4 5.6 5.6 0 0 1-1.7-1.2 5.5 5.5 0 0 1-1.1-1.7 5.7 5.7 0 0 1-0.4-2.2c0-0.8-1.5-2.2a5.4 5.4 0 0 1 1.1-1.7 5.4 5.4 0 0 1 1.7-1.2 5.2 5.2 0 0 1 2.1-0.4c0.7 0 1.4 2.1 1.2 1.7 1.1a5.3 5.3 0 0 1 1.1 1.7c0.3 1.4 2.3zm-2.7 0c0-0.4-0.1-0.8-0.2-1.2a2.6 2.6 0 0 0-0.6-0.9 2.4 2.4 0 0 0-0.8-0.6 2.6 2.6 0 0 0-1-0.2c-0.4 0-0.7-1-0.3-0.6-0.8-0.2-0.4-0.6a3.1 3.1 0 0 0-0.2 1.2c0 0.4 1.1 1 0 0.7-0.1 1-0.2-0.1-0.3-0.6-0.2-0.5-0.9a3.1 3.1 0 0 0 0.2-1.2zM54.6 23h-2.7V8.4h2.7V23zm5.2-13.3c0 0.2 0-0.1a1.8 1.8 0 0 1-0.4 2 2 0 0 1-0.6 1.8 1.8 0 0 1-0.7c-0.2 0-0.5 0-0.7-0.1a2 2 0 0 1-0.6-0.4 2 2 0 0 1-0.4-0.6 1.8 1.8 0 0 1-0.1-0.7c0-0.2-0.5-0.7a1.8 1.8 0 0 1 0.9-0.9c0.2-0.1-0.1-0.1 0 0.5zm-0.5 13.3h-2.7V12.5h2.7V23zm12.5-5.3c0 0.8-0.1 1.6-0.4 2.2a5.4 5.4 0 0 1-1.1 1.7 5.1 5.1 0 0 1-1.7 1.1c-0.6-1.3-2.1a5.3 5.3 0 0 1-2.1-0.4 5.3 5.3 0 0 1-1.7-1.1 5.4 5.4 0 0 1-1.1-1.7 5.8 5.8 0 0 1-0.4-2.2V8.4h2.7v4.9c0.1-0.2-0.3-0.5-0.1-0.3-0.4-0.1-0.2-0.2-0.1-0.1-0.1 0 1.4 2.1a5.1 5.1 0 0 1 1.7 1.2c0.5 1.1 1.1 1.8 1.4 2.2zm-2.7 0a2.9 2.9 0 0 0-0.2-1.1 2.8 2.8 0 0 0-0.6-0.9 2.6 2.6 0 0 0-1.9-0.8c-0.4 0-0.7-1a2.8 2.8 0 0 0-0.8c-0.2-0.4-0.6-0.1-0.2-0.2 1.1 0 0.4 1.1a2.8 2.8 0 0 0 1.4 1.5c0.3 1 0 0.7-0.1 1-0.2-0.1-0.4-0.6-0.3-0.6-0.9-0.3-0.7-1.1zM76 23h-2.7V12.5h0.6l0.9 1.2c0.4-0.4-0.7 1.5-0.9a4.6 4.6 0 0 1 1.7-0.3h2.4v2.7h-2.4a2 2 0 0 0-1.4 2 2 0 0 0-0.6 1.4V23zm8.8-13.3c0 0.2 0-0.1a1.8 1.8 0 0 1-0.4 2 2 0 0 1-0.6 1.8 1.8 0 0 1-0.7c-0.2 0-0.5 0-0.7-0.1a2 2 0 0 1-0.6-0.4 2 2 0 0 1-0.4-0.6 1.8 1.8 0 0 1-0.1-0.7c0-0.2-0.5-0.7a1.8 1.8 0 0 1 0.9-0.9c0.2-0.1-0.1-0.1 0 0.5zm-0.5 13.3h-2.7V12.5h2.7V23zm7.3 0c-0.6 0-1.2-0.1-1.8-0.4a4.9 4.9 0 0 1-1.5-1 4.9 4.9 0 0 1-1-1.5 4.6 4.6 0 0 1-0.4-1.8v-3.1h-1.3V12.6h1.3V8.4h2.7v4.2h4v2.7h-4v3.1c0 0.3h2V23H91.6zm7.7-2.6c0.1 0 0.5 0-0.1a2.6 2.6 0 0 0 1.2-0.8 2.6 2.6 0 0 0 0.4-0.6l2 2a5.2 5.2 0 0 1-0.9 5.2 5.2 0 0 1-2.2 1.2c-0.4-0.8-1.3-0.7 0-1.4-0.1-2.1-0.4a5.3 5.3 0 0 1-1.7-1.1 5.4 5.4 0 0 1-1.1-1.7 5.8 5.8 0 0 1-0.4-2.2c0-0.8-1.6-2.3-0.7-1.3 1.1-1.7a5.3 5.3 0 0 1 1.7-1.1 5.4 5.4 0 0 1 2.1-0.4 5.3 5.3 0 0 1 2.5 5.2 5.2 0 0 1 1.1c0.3l-5 6zm1.4-5.5a1.5 1.5 0 0 0-0.4-0.1 3.3 3.3 0 0 0-0.4 0c-0.4 0-0.7-1-0.3-0.6-0.8-0.2-0.4-0.6a3.2 3.2 0 0 0-0.2 1.2c0 0.1l3.1-4.1zm14-0.3l-2 2a2.6 2.6 0 0 0-0.4-0.7 2.6 2.6 0 0 0-1.3-0.9 2.5 2.5 0 0 0-1.8 2.6 2.6 0 0 0-0.8c-0.2-0.4-0.6a3.5 3.5 0 0 0-0.2 1.2c0 0.4 1a2.7 2.7 0 0 0 1c0.3 0 0.5 0-0.1a2.6 2.6 0 0 0 1.2-0.8 2.6 2.6 0 0 0 0.4-0.6l2 2a5.2 5.2 0 0 1-0.9 5.2 5.2 0 0 1-2.2 1.2c-0.4-0.8-1.3a5.3 5.3 0 0 1-2.1-0.4 5.6 5.6 0 0 1-1.7-1.1 5.4 5.4 0 0 1-1.1-1.7 5.1 5.1 0 0 1-0.4-2.1c0-0.8-1.5-2.2-0.7-1.3 1.1-1.8a5.5 5.5 0 0 1 1.7-1.2c0.7-0.3 1.3-0.4 2.1-0.4 0 0.9 1.3 1.2 1.1 1.1zM118.6 23h-2.7V8.4h2.7V13c0.3-0.2-0.4-0.5a3.5 3.5 0 0 1 1-0.2c0.6 0 1.3 1.8 1.1 1.5 1 1.5 1.2 1.8V23h-2.7v-6h0a2 2 0 0 0-1.2-1.8 1.9 1.9 0 0 0-0.8-0.2 2 2 0 0 0-1.4 2 2 0 0 0-0.6 1.4V23zM13.7 8.2c0.4-0.3-0.3-3.7 1.2-5.9 5.9-5.4 0-0.6-4.1-2.6-6.7-0.2-7 0-1.1-2 3.4-0.3 6.3zM21.5 6.2c-0.2-0.3 2.7-0.2 2.4 1.4 1.8 3.2 0-0.2-1.1-2.2 1.9-3.2 2.6-2.7 5.6-4.7 8.4-6.7-0.2-0.1-0.2-0.3-0.2-2.6 1.7-5.3 3.7-7.9 5.1l-2.5-1.9zM19.4 10.3c0.2-0.3-0.2-0.6-0.4-0.1-0.4-0.7 1.3-0.6 2.6 2.7 5.1 6.2-1.6 2.7-5.1 4.5-7.4 7.3-0.6-1.1 1.9-1.6 3.3l-0.7 2.7c0.2-5.1 4.8-7 8.2-9.2 2.1-1.7 4.8-4.1 2.9-7.3-0.5-1.7-2.2-2.9-1-5.5zM13.3 12.9C10.3 9.8 5.3 9.8 1.2 7.5 7.1-0.5 6.9 8.3l2.9 7.5c2.4 3.6 4.8 2.7 7.3 2.8-1-1.8-0.6-1.8-5 2-5.6-3.7-7.7-6.6-0.2-0.3-0.5-0.8-0.4 3.2 1.7 6.2 1.2 9 4.1 1.8 0 1.4-1z" fill="#fff"/></g></svg>