<svg width="50" height="50" viewBox="0 0 50 50" fill="none" xmlns="http://www.w3.org/2000/svg">
<path d="M30.8594 33.7891C30.3204 33.7891 29.8828 34.2266 29.8828 34.7656C29.8828 35.3046 30.3204 35.7422 30.8594 35.7422C31.3984 35.7422 31.8359 35.3046 31.8359 34.7656C31.8359 34.2266 31.3984 33.7891 30.8594 33.7891Z" fill="#339C83"/>
<path d="M45.1172 0H4.88281C2.1904 0 0 2.1904 0 4.88281V34.7656C0 37.458 2.1904 39.6484 4.88281 39.6484H20.1172V44.1406H19.1406C17.8368 44.1406 16.6111 44.6487 15.6883 45.5711C14.7659 46.4939 14.2578 47.7196 14.2578 49.0234C14.2578 49.5628 14.695 50 15.2344 50H34.7656C35.305 50 35.7422 49.5628 35.7422 49.0234C35.7422 46.331 33.5518 44.1406 30.8594 44.1406H29.8828V39.6484H45.1172C47.8096 39.6484 50 37.458 50 34.7656V4.88281C50 2.1904 47.8096 0 45.1172 0V0ZM1.95312 29.8828V4.88281C1.95312 3.26729 3.26729 1.95312 4.88281 1.95312H45.1172C46.7327 1.95312 48.0469 3.26729 48.0469 4.88281V29.8828H1.95312ZM33.6216 48.0469H16.3773C16.5207 47.6398 16.7549 47.2668 17.0692 46.952C17.6231 46.3985 18.3586 46.0938 19.1406 46.0938H30.8594C32.1327 46.0938 33.2188 46.9101 33.6216 48.0469ZM27.9297 44.1406H22.0703V39.6484H27.9297V44.1406ZM45.1172 37.6953H4.88281C3.26729 37.6953 1.95312 36.3811 1.95312 34.7656V31.8359H48.0469V34.7656C48.0469 36.3811 46.7327 37.6953 45.1172 37.6953Z" fill="#339C83"/>
<path d="M26.9531 33.7891H21.0937C20.5544 33.7891 20.1172 34.2262 20.1172 34.7656C20.1172 35.305 20.5544 35.7422 21.0937 35.7422H26.9531C27.4925 35.7422 27.9297 35.305 27.9297 34.7656C27.9297 34.2262 27.4925 33.7891 26.9531 33.7891Z" fill="#339C83"/>
<path d="M35.265 15.2294C35.2334 14.9483 34.9055 14.7368 34.622 14.7368C33.7057 14.7368 32.8925 14.199 32.5514 13.3666C32.2033 12.5142 32.4279 11.5203 33.1106 10.894C33.3256 10.6974 33.3518 10.3683 33.1716 10.1397C32.7024 9.54415 32.1695 9.00607 31.5874 8.53979C31.3596 8.35712 31.025 8.38255 30.8273 8.60129C30.2313 9.2614 29.1606 9.5067 28.3332 9.1615C27.4725 8.79936 26.9292 7.9269 26.9826 6.99044C27.0001 6.69611 26.7849 6.44035 26.4916 6.40618C25.7446 6.31969 24.991 6.31718 24.2418 6.4003C23.9522 6.4323 23.7372 6.68201 23.7468 6.97263C23.7792 7.89992 23.2298 8.75697 22.3774 9.10615C21.5599 9.4401 20.4967 9.19662 19.9018 8.5423C19.7052 8.32676 19.3765 8.30029 19.1472 8.47907C18.5479 8.94934 18.0029 9.48775 17.5295 10.0785C17.345 10.3081 17.3722 10.641 17.5891 10.8383C18.2853 11.4687 18.5097 12.4712 18.1483 13.3335C17.8031 14.1556 16.9495 14.6852 15.9724 14.6852C15.6553 14.675 15.4297 14.888 15.3946 15.1764C15.3068 15.9274 15.3058 16.693 15.3904 17.4502C15.422 17.7325 15.7595 17.9422 16.0462 17.9422C16.9172 17.92 17.7529 18.4589 18.104 19.3123C18.4533 20.1647 18.2284 21.1582 17.5446 21.7853C17.3307 21.9819 17.3034 22.3103 17.484 22.5386C17.9484 23.1305 18.4819 23.6689 19.0657 24.1391C19.2949 24.3237 19.6283 24.2978 19.8269 24.0788C20.4253 23.4172 21.4958 23.1723 22.3199 23.5182C23.1831 23.8794 23.7261 24.7518 23.6731 25.6885C23.6557 25.9828 23.8714 26.2394 24.1637 26.2727C24.546 26.3175 24.9303 26.3396 25.3158 26.3396C25.6816 26.3396 26.0476 26.3196 26.4135 26.2789C26.7035 26.2469 26.9181 25.9969 26.9084 25.7062C26.8749 24.7794 27.4255 23.9222 28.2769 23.5737C29.0998 23.2376 30.1583 23.4836 30.7535 24.137C30.9511 24.3521 31.2779 24.3782 31.5081 24.2001C32.1063 23.7311 32.6503 23.1929 33.1258 22.6006C33.3105 22.3714 33.2843 22.0381 33.0662 21.8405C32.3702 21.2105 32.1446 20.2076 32.506 19.3461C32.8458 18.5351 33.6676 17.9905 34.5516 17.9905L34.6753 17.9938C34.9623 18.0171 35.226 17.7961 35.2607 17.5033C35.349 16.7516 35.3499 15.9868 35.265 15.2294V15.2294ZM25.3278 22.1047C22.1437 22.1047 19.5626 19.5237 19.5626 16.3397C19.5626 13.1557 22.1438 10.5747 25.3278 10.5747C28.5118 10.5747 31.093 13.1557 31.093 16.3397C31.093 17.4205 30.795 18.4313 30.2775 19.2957L27.7531 16.7712C27.9358 16.3403 28.0324 15.8732 28.0323 15.3911C28.0323 14.447 27.6646 13.5595 26.9969 12.892C26.3295 12.2246 25.442 11.857 24.498 11.857C24.183 11.857 23.8695 11.8988 23.5662 11.9814C23.4333 12.0177 23.3247 12.1272 23.2893 12.2603C23.2531 12.3964 23.2939 12.5359 23.4003 12.6424C23.4003 12.6424 24.6466 13.8983 25.0635 14.3152C25.1072 14.3589 25.1071 14.4631 25.101 14.5006L25.0971 14.528C25.0551 14.9865 24.974 15.5367 24.9072 15.7482C24.8982 15.7571 24.8897 15.7646 24.8805 15.7738C24.8709 15.7834 24.8621 15.7927 24.8528 15.8022C24.6386 15.8709 24.0798 15.9529 23.6142 15.9946L23.6142 15.9921L23.5933 15.9974C23.5896 15.9978 23.5827 15.9983 23.5735 15.9983C23.5232 15.9983 23.4491 15.9842 23.3818 15.917C22.9478 15.483 21.7504 14.2942 21.7504 14.2942C21.643 14.1871 21.5328 14.1646 21.4593 14.1646C21.2882 14.1646 21.1349 14.2883 21.0866 14.4657C20.757 15.6855 21.1064 16.9976 21.9988 17.89C22.6664 18.5576 23.554 18.9252 24.4981 18.9252C24.9802 18.9252 25.4474 18.8287 25.8782 18.646L28.4301 21.1978C27.5342 21.771 26.4703 22.1047 25.3278 22.1047V22.1047Z" fill="#339C83"/>
</svg>
