<svg width="128" height="36" viewBox="0 0 128 36" fill="none" xmlns="http://www.w3.org/2000/svg">
<path d="M40.1562 16.6211L38.2031 18.584C38.1055 18.3105 37.972 18.0664 37.8027 17.8516C37.6335 17.6302 37.4414 17.4447 37.2266 17.2949C37.0182 17.1452 36.7904 17.0312 36.543 16.9531C36.2956 16.875 36.0417 16.8359 35.7812 16.8359C35.4167 16.8359 35.0716 16.9108 34.7461 17.0605C34.4271 17.2103 34.1471 17.4219 33.9062 17.6953C33.6719 17.9622 33.4863 18.2812 33.3496 18.6523C33.2129 19.0234 33.1445 19.4336 33.1445 19.8828C33.1445 20.2474 33.2129 20.5892 33.3496 20.9082C33.4863 21.2272 33.6719 21.5072 33.9062 21.748C34.1471 21.9889 34.4271 22.1777 34.7461 22.3145C35.0716 22.4512 35.4167 22.5195 35.7812 22.5195C36.0417 22.5195 36.2923 22.4837 36.5332 22.4121C36.7741 22.3405 36.9987 22.2396 37.207 22.1094C37.4219 21.9727 37.6107 21.8099 37.7734 21.6211C37.9427 21.4258 38.0794 21.2109 38.1836 20.9766L40.1367 22.9395C39.8893 23.291 39.6029 23.6068 39.2773 23.8867C38.9583 24.1667 38.61 24.4043 38.2324 24.5996C37.8613 24.7949 37.4674 24.9414 37.0508 25.0391C36.6406 25.1432 36.2174 25.1953 35.7812 25.1953C35.0456 25.1953 34.3522 25.0586 33.7012 24.7852C33.0566 24.5052 32.4902 24.1243 32.002 23.6426C31.5202 23.1608 31.1393 22.5977 30.8594 21.9531C30.5794 21.3086 30.4395 20.6185 30.4395 19.8828C30.4395 19.082 30.5794 18.3333 30.8594 17.6367C31.1393 16.9401 31.5202 16.3346 32.002 15.8203C32.4902 15.2995 33.0566 14.8893 33.7012 14.5898C34.3522 14.2904 35.0456 14.1406 35.7812 14.1406C36.2174 14.1406 36.6439 14.196 37.0605 14.3066C37.4837 14.4173 37.8841 14.5801 38.2617 14.7949C38.6458 15.0033 38.9974 15.2604 39.3164 15.5664C39.6419 15.8724 39.9219 16.224 40.1562 16.6211ZM51.416 19.6777C51.416 20.459 51.276 21.1882 50.9961 21.8652C50.7161 22.5358 50.3353 23.1185 49.8535 23.6133C49.3717 24.1016 48.8053 24.4889 48.1543 24.7754C47.5098 25.0553 46.8164 25.1953 46.0742 25.1953C45.3385 25.1953 44.6452 25.0553 43.9941 24.7754C43.3496 24.4889 42.7832 24.1016 42.2949 23.6133C41.8132 23.1185 41.4323 22.5358 41.1523 21.8652C40.8724 21.1882 40.7324 20.459 40.7324 19.6777C40.7324 18.8835 40.8724 18.1478 41.1523 17.4707C41.4323 16.7936 41.8132 16.2109 42.2949 15.7227C42.7832 15.2279 43.3496 14.8405 43.9941 14.5605C44.6452 14.2806 45.3385 14.1406 46.0742 14.1406C46.8164 14.1406 47.5098 14.2741 48.1543 14.541C48.8053 14.8014 49.3717 15.1758 49.8535 15.6641C50.3353 16.1458 50.7161 16.7285 50.9961 17.4121C51.276 18.0892 51.416 18.8444 51.416 19.6777ZM48.7305 19.6777C48.7305 19.248 48.6589 18.8607 48.5156 18.5156C48.3789 18.1641 48.1901 17.8646 47.9492 17.6172C47.7083 17.3633 47.4251 17.1712 47.0996 17.041C46.7806 16.9043 46.4388 16.8359 46.0742 16.8359C45.7096 16.8359 45.3646 16.9043 45.0391 17.041C44.7201 17.1712 44.4401 17.3633 44.1992 17.6172C43.9648 17.8646 43.7793 18.1641 43.6426 18.5156C43.5059 18.8607 43.4375 19.248 43.4375 19.6777C43.4375 20.0814 43.5059 20.4557 43.6426 20.8008C43.7793 21.1458 43.9648 21.4453 44.1992 21.6992C44.4401 21.9531 44.7201 22.1549 45.0391 22.3047C45.3646 22.4479 45.7096 22.5195 46.0742 22.5195C46.4388 22.5195 46.7806 22.4512 47.0996 22.3145C47.4251 22.1777 47.7083 21.9857 47.9492 21.7383C48.1901 21.4909 48.3789 21.1914 48.5156 20.8398C48.6589 20.4883 48.7305 20.1009 48.7305 19.6777ZM55.5762 25H52.8906V10.3809H55.5762V25ZM60.7617 11.6992C60.7617 11.9466 60.7129 12.1777 60.6152 12.3926C60.5241 12.6074 60.3971 12.7962 60.2344 12.959C60.0716 13.1152 59.8796 13.2422 59.6582 13.3398C59.4434 13.431 59.2122 13.4766 58.9648 13.4766C58.7174 13.4766 58.4831 13.431 58.2617 13.3398C58.0469 13.2422 57.8581 13.1152 57.6953 12.959C57.5391 12.7962 57.4121 12.6074 57.3145 12.3926C57.2233 12.1777 57.1777 11.9466 57.1777 11.6992C57.1777 11.4583 57.2233 11.2305 57.3145 11.0156C57.4121 10.7943 57.5391 10.6055 57.6953 10.4492C57.8581 10.2865 58.0469 10.1595 58.2617 10.0684C58.4831 9.9707 58.7174 9.92188 58.9648 9.92188C59.2122 9.92188 59.4434 9.9707 59.6582 10.0684C59.8796 10.1595 60.0716 10.2865 60.2344 10.4492C60.3971 10.6055 60.5241 10.7943 60.6152 11.0156C60.7129 11.2305 60.7617 11.4583 60.7617 11.6992ZM60.3027 25H57.6172V14.541H60.3027V25ZM72.8125 19.6777C72.8125 20.498 72.6725 21.2467 72.3926 21.9238C72.1126 22.6009 71.7318 23.1836 71.25 23.6719C70.7682 24.1536 70.2018 24.528 69.5508 24.7949C68.9062 25.0618 68.2129 25.1953 67.4707 25.1953C66.735 25.1953 66.0417 25.0586 65.3906 24.7852C64.7461 24.5117 64.1797 24.1309 63.6914 23.6426C63.2096 23.1543 62.8288 22.5749 62.5488 21.9043C62.2689 21.2272 62.1289 20.485 62.1289 19.6777V10.3809H64.8047V15.2637C64.9479 15.0814 65.1204 14.9186 65.3223 14.7754C65.5306 14.6322 65.752 14.515 65.9863 14.4238C66.2272 14.3327 66.4746 14.2643 66.7285 14.2188C66.9824 14.1667 67.2298 14.1406 67.4707 14.1406C68.2129 14.1406 68.9062 14.2806 69.5508 14.5605C70.2018 14.834 70.7682 15.2181 71.25 15.7129C71.7318 16.2077 72.1126 16.7936 72.3926 17.4707C72.6725 18.1413 72.8125 18.877 72.8125 19.6777ZM70.127 19.6777C70.127 19.2741 70.0553 18.8997 69.9121 18.5547C69.7754 18.2031 69.5866 17.9004 69.3457 17.6465C69.1048 17.3926 68.8216 17.194 68.4961 17.0508C68.1771 16.9076 67.8353 16.8359 67.4707 16.8359C67.1061 16.8359 66.7611 16.9173 66.4355 17.0801C66.1165 17.2363 65.8366 17.4479 65.5957 17.7148C65.3548 17.9753 65.166 18.278 65.0293 18.623C64.8926 18.9616 64.8242 19.3132 64.8242 19.6777C64.8242 20.0814 64.8926 20.4557 65.0293 20.8008C65.166 21.1458 65.3548 21.4453 65.5957 21.6992C65.8366 21.9531 66.1165 22.1549 66.4355 22.3047C66.7611 22.4479 67.1061 22.5195 67.4707 22.5195C67.8353 22.5195 68.1771 22.4479 68.4961 22.3047C68.8216 22.1549 69.1048 21.9531 69.3457 21.6992C69.5866 21.4453 69.7754 21.1458 69.9121 20.8008C70.0553 20.4557 70.127 20.0814 70.127 19.6777ZM76.9629 25H74.2969V14.541H74.9414L75.8203 15.7812C76.25 15.3906 76.7383 15.0911 77.2852 14.8828C77.832 14.668 78.3984 14.5605 78.9844 14.5605H81.3379V17.2168H78.9844C78.7044 17.2168 78.4408 17.2689 78.1934 17.373C77.946 17.4772 77.7311 17.6204 77.5488 17.8027C77.3665 17.985 77.2233 18.1999 77.1191 18.4473C77.015 18.6947 76.9629 18.9583 76.9629 19.2383V25ZM85.7227 11.6992C85.7227 11.9466 85.6738 12.1777 85.5762 12.3926C85.485 12.6074 85.3581 12.7962 85.1953 12.959C85.0326 13.1152 84.8405 13.2422 84.6191 13.3398C84.4043 13.431 84.1732 13.4766 83.9258 13.4766C83.6784 13.4766 83.444 13.431 83.2227 13.3398C83.0078 13.2422 82.819 13.1152 82.6562 12.959C82.5 12.7962 82.373 12.6074 82.2754 12.3926C82.1842 12.1777 82.1387 11.9466 82.1387 11.6992C82.1387 11.4583 82.1842 11.2305 82.2754 11.0156C82.373 10.7943 82.5 10.6055 82.6562 10.4492C82.819 10.2865 83.0078 10.1595 83.2227 10.0684C83.444 9.9707 83.6784 9.92188 83.9258 9.92188C84.1732 9.92188 84.4043 9.9707 84.6191 10.0684C84.8405 10.1595 85.0326 10.2865 85.1953 10.4492C85.3581 10.6055 85.485 10.7943 85.5762 11.0156C85.6738 11.2305 85.7227 11.4583 85.7227 11.6992ZM85.2637 25H82.5781V14.541H85.2637V25ZM92.5488 25C91.9043 25 91.2988 24.8796 90.7324 24.6387C90.166 24.3913 89.668 24.056 89.2383 23.6328C88.8151 23.2031 88.4798 22.7051 88.2324 22.1387C87.9915 21.5723 87.8711 20.9668 87.8711 20.3223V17.2168H86.5723V14.5605H87.8711V10.3809H90.5273V14.5605H94.5703V17.2168H90.5273V20.3223C90.5273 20.6022 90.5794 20.8659 90.6836 21.1133C90.7878 21.3542 90.931 21.5658 91.1133 21.748C91.2956 21.9303 91.5104 22.0768 91.7578 22.1875C92.0052 22.2917 92.2689 22.3438 92.5488 22.3438H94.5703V25H92.5488ZM100.234 22.4414C100.339 22.474 100.443 22.4967 100.547 22.5098C100.651 22.5163 100.755 22.5195 100.859 22.5195C101.12 22.5195 101.37 22.4837 101.611 22.4121C101.852 22.3405 102.077 22.2396 102.285 22.1094C102.5 21.9727 102.689 21.8099 102.852 21.6211C103.021 21.4258 103.158 21.2109 103.262 20.9766L105.215 22.9395C104.967 23.291 104.681 23.6068 104.355 23.8867C104.036 24.1667 103.688 24.4043 103.311 24.5996C102.939 24.7949 102.546 24.9414 102.129 25.0391C101.719 25.1432 101.296 25.1953 100.859 25.1953C100.124 25.1953 99.4303 25.0586 98.7793 24.7852C98.1348 24.5117 97.5684 24.1309 97.0801 23.6426C96.5983 23.1543 96.2174 22.5749 95.9375 21.9043C95.6576 21.2272 95.5176 20.485 95.5176 19.6777C95.5176 18.8509 95.6576 18.0957 95.9375 17.4121C96.2174 16.7285 96.5983 16.1458 97.0801 15.6641C97.5684 15.1823 98.1348 14.8079 98.7793 14.541C99.4303 14.2741 100.124 14.1406 100.859 14.1406C101.296 14.1406 101.722 14.1927 102.139 14.2969C102.555 14.401 102.949 14.5508 103.32 14.7461C103.698 14.9414 104.049 15.1823 104.375 15.4688C104.701 15.7487 104.987 16.0645 105.234 16.416L100.234 22.4414ZM101.602 16.9434C101.478 16.8978 101.354 16.8685 101.23 16.8555C101.113 16.8424 100.99 16.8359 100.859 16.8359C100.495 16.8359 100.15 16.9043 99.8242 17.041C99.5052 17.1712 99.2253 17.36 98.9844 17.6074C98.75 17.8548 98.5645 18.1543 98.4277 18.5059C98.291 18.8509 98.2227 19.2415 98.2227 19.6777C98.2227 19.7754 98.2259 19.8861 98.2324 20.0098C98.2454 20.1335 98.2617 20.2604 98.2812 20.3906C98.3073 20.5143 98.3366 20.6348 98.3691 20.752C98.4017 20.8691 98.444 20.9733 98.4961 21.0645L101.602 16.9434ZM115.645 16.6211L113.691 18.584C113.594 18.3105 113.46 18.0664 113.291 17.8516C113.122 17.6302 112.93 17.4447 112.715 17.2949C112.507 17.1452 112.279 17.0312 112.031 16.9531C111.784 16.875 111.53 16.8359 111.27 16.8359C110.905 16.8359 110.56 16.9108 110.234 17.0605C109.915 17.2103 109.635 17.4219 109.395 17.6953C109.16 17.9622 108.975 18.2812 108.838 18.6523C108.701 19.0234 108.633 19.4336 108.633 19.8828C108.633 20.2474 108.701 20.5892 108.838 20.9082C108.975 21.2272 109.16 21.5072 109.395 21.748C109.635 21.9889 109.915 22.1777 110.234 22.3145C110.56 22.4512 110.905 22.5195 111.27 22.5195C111.53 22.5195 111.781 22.4837 112.021 22.4121C112.262 22.3405 112.487 22.2396 112.695 22.1094C112.91 21.9727 113.099 21.8099 113.262 21.6211C113.431 21.4258 113.568 21.2109 113.672 20.9766L115.625 22.9395C115.378 23.291 115.091 23.6068 114.766 23.8867C114.447 24.1667 114.098 24.4043 113.721 24.5996C113.35 24.7949 112.956 24.9414 112.539 25.0391C112.129 25.1432 111.706 25.1953 111.27 25.1953C110.534 25.1953 109.84 25.0586 109.189 24.7852C108.545 24.5052 107.979 24.1243 107.49 23.6426C107.008 23.1608 106.628 22.5977 106.348 21.9531C106.068 21.3086 105.928 20.6185 105.928 19.8828C105.928 19.082 106.068 18.3333 106.348 17.6367C106.628 16.9401 107.008 16.3346 107.49 15.8203C107.979 15.2995 108.545 14.8893 109.189 14.5898C109.84 14.2904 110.534 14.1406 111.27 14.1406C111.706 14.1406 112.132 14.196 112.549 14.3066C112.972 14.4173 113.372 14.5801 113.75 14.7949C114.134 15.0033 114.486 15.2604 114.805 15.5664C115.13 15.8724 115.41 16.224 115.645 16.6211ZM119.619 25H116.953V10.3809H119.619V15C119.938 14.7591 120.267 14.5898 120.605 14.4922C120.944 14.388 121.289 14.3359 121.641 14.3359C122.285 14.3359 122.891 14.4596 123.457 14.707C124.023 14.9479 124.515 15.2832 124.932 15.7129C125.355 16.1361 125.687 16.6341 125.928 17.207C126.175 17.7734 126.299 18.3789 126.299 19.0234V25H123.613V19.0234H123.633C123.633 18.75 123.581 18.4928 123.477 18.252C123.372 18.0046 123.229 17.7897 123.047 17.6074C122.865 17.4251 122.653 17.2819 122.412 17.1777C122.171 17.0736 121.914 17.0215 121.641 17.0215C121.361 17.0215 121.097 17.0736 120.85 17.1777C120.602 17.2819 120.387 17.4251 120.205 17.6074C120.023 17.7897 119.88 18.0046 119.775 18.252C119.671 18.4928 119.619 18.75 119.619 19.0234V25Z" fill="white"/>
<path d="M14.7228 10.2438C15.1254 10.4744 15.3994 10.5885 15.6255 9.9186C15.3587 6.2538 16.8406 4.06438 21.4752 4.53485C21.7303 4.48653 22.4097 4.5953 22.053 3.9206C17.9283 1.29954 15.3204 3.71183 15.0117 3.9206C13.8679 4.90803 13.0211 7.35555 14.7228 10.2438Z" fill="white"/>
<path d="M23.4563 7.2467C23.2398 7.43474 23.1367 7.60215 23.6605 7.65549C26.3692 7.40857 26.0872 9.00559 25.4775 10.8047C25.4595 11.0504 25.3073 11.3503 25.7063 11.1466C26.4264 10.0654 26.2959 8.98418 27.5778 7.90296C30.2064 5.20067 33.154 3.24209 35.993 1.217C36.031 1.0172 35.9119 0.974523 35.7121 1.01261C33.0865 2.71165 30.4608 4.72859 27.8352 6.10975L25.3202 6.76126L23.4563 7.2467Z" fill="white" stroke="white"/>
<path d="M20.4105 13.297C20.6239 12.9698 20.2195 12.7411 19.9892 13.2203C19.5487 13.7832 19.2885 14.5333 19.4275 15.8264C20.0038 18.5548 20.3062 20.9407 19.5321 21.9802C17.8986 24.6365 14.4575 26.4955 12.1761 29.2654C11.6182 30.2333 11.0555 31.1732 10.5675 32.5613L9.87816 35.244C10.0293 35.5893 10.1427 35.4077 10.2612 35.2951C11.2342 30.2096 15.0495 28.3425 18.5083 26.0717C20.5737 24.4122 23.2913 21.9962 21.4446 18.7646C20.9006 17.0346 19.246 15.8207 20.4105 13.297V13.297Z" fill="white" stroke="white"/>
<path d="M14.2655 14.8615C11.2778 11.8092 6.2888 11.753 2.21392 9.54719C1.41607 9.12449 0.480705 8.89822 1.3458 10.3392L4.25656 17.8253C6.67368 21.4466 9.0908 20.491 11.5079 20.5846C12.4495 19.6267 11.8489 18.834 10.8951 18.745C5.85772 20.7853 5.31537 15.0737 3.18417 12.1021C3.0192 11.7561 2.67777 11.3042 3.8225 11.7445C6.99385 13.4467 10.0023 12.9019 12.8612 15.8579C13.4566 16.3602 14.6838 15.8206 14.2655 14.8615V14.8615Z" fill="white" stroke="white"/>
</svg>
