<svg width="127" height="33" viewBox="0 0 127 33" fill="none" xmlns="http://www.w3.org/2000/svg">
<path d="M39.1562 14.6211L37.2031 16.584C37.1055 16.3105 36.972 16.0664 36.8027 15.8516C36.6335 15.6302 36.4414 15.4447 36.2266 15.2949C36.0182 15.1452 35.7904 15.0312 35.543 14.9531C35.2956 14.875 35.0417 14.8359 34.7812 14.8359C34.4167 14.8359 34.0716 14.9108 33.7461 15.0605C33.4271 15.2103 33.1471 15.4219 32.9062 15.6953C32.6719 15.9622 32.4863 16.2812 32.3496 16.6523C32.2129 17.0234 32.1445 17.4336 32.1445 17.8828C32.1445 18.2474 32.2129 18.5892 32.3496 18.9082C32.4863 19.2272 32.6719 19.5072 32.9062 19.748C33.1471 19.9889 33.4271 20.1777 33.7461 20.3145C34.0716 20.4512 34.4167 20.5195 34.7812 20.5195C35.0417 20.5195 35.2923 20.4837 35.5332 20.4121C35.7741 20.3405 35.9987 20.2396 36.207 20.1094C36.4219 19.9727 36.6107 19.8099 36.7734 19.6211C36.9427 19.4258 37.0794 19.2109 37.1836 18.9766L39.1367 20.9395C38.8893 21.291 38.6029 21.6068 38.2773 21.8867C37.9583 22.1667 37.61 22.4043 37.2324 22.5996C36.8613 22.7949 36.4674 22.9414 36.0508 23.0391C35.6406 23.1432 35.2174 23.1953 34.7812 23.1953C34.0456 23.1953 33.3522 23.0586 32.7012 22.7852C32.0566 22.5052 31.4902 22.1243 31.002 21.6426C30.5202 21.1608 30.1393 20.5977 29.8594 19.9531C29.5794 19.3086 29.4395 18.6185 29.4395 17.8828C29.4395 17.082 29.5794 16.3333 29.8594 15.6367C30.1393 14.9401 30.5202 14.3346 31.002 13.8203C31.4902 13.2995 32.0566 12.8893 32.7012 12.5898C33.3522 12.2904 34.0456 12.1406 34.7812 12.1406C35.2174 12.1406 35.6439 12.196 36.0605 12.3066C36.4837 12.4173 36.8841 12.5801 37.2617 12.7949C37.6458 13.0033 37.9974 13.2604 38.3164 13.5664C38.6419 13.8724 38.9219 14.224 39.1562 14.6211ZM50.416 17.6777C50.416 18.459 50.276 19.1882 49.9961 19.8652C49.7161 20.5358 49.3353 21.1185 48.8535 21.6133C48.3717 22.1016 47.8053 22.4889 47.1543 22.7754C46.5098 23.0553 45.8164 23.1953 45.0742 23.1953C44.3385 23.1953 43.6452 23.0553 42.9941 22.7754C42.3496 22.4889 41.7832 22.1016 41.2949 21.6133C40.8132 21.1185 40.4323 20.5358 40.1523 19.8652C39.8724 19.1882 39.7324 18.459 39.7324 17.6777C39.7324 16.8835 39.8724 16.1478 40.1523 15.4707C40.4323 14.7936 40.8132 14.2109 41.2949 13.7227C41.7832 13.2279 42.3496 12.8405 42.9941 12.5605C43.6452 12.2806 44.3385 12.1406 45.0742 12.1406C45.8164 12.1406 46.5098 12.2741 47.1543 12.541C47.8053 12.8014 48.3717 13.1758 48.8535 13.6641C49.3353 14.1458 49.7161 14.7285 49.9961 15.4121C50.276 16.0892 50.416 16.8444 50.416 17.6777ZM47.7305 17.6777C47.7305 17.248 47.6589 16.8607 47.5156 16.5156C47.3789 16.1641 47.1901 15.8646 46.9492 15.6172C46.7083 15.3633 46.4251 15.1712 46.0996 15.041C45.7806 14.9043 45.4388 14.8359 45.0742 14.8359C44.7096 14.8359 44.3646 14.9043 44.0391 15.041C43.7201 15.1712 43.4401 15.3633 43.1992 15.6172C42.9648 15.8646 42.7793 16.1641 42.6426 16.5156C42.5059 16.8607 42.4375 17.248 42.4375 17.6777C42.4375 18.0814 42.5059 18.4557 42.6426 18.8008C42.7793 19.1458 42.9648 19.4453 43.1992 19.6992C43.4401 19.9531 43.7201 20.1549 44.0391 20.3047C44.3646 20.4479 44.7096 20.5195 45.0742 20.5195C45.4388 20.5195 45.7806 20.4512 46.0996 20.3145C46.4251 20.1777 46.7083 19.9857 46.9492 19.7383C47.1901 19.4909 47.3789 19.1914 47.5156 18.8398C47.6589 18.4883 47.7305 18.1009 47.7305 17.6777ZM54.5762 23H51.8906V8.38086H54.5762V23ZM59.7617 9.69922C59.7617 9.94661 59.7129 10.1777 59.6152 10.3926C59.5241 10.6074 59.3971 10.7962 59.2344 10.959C59.0716 11.1152 58.8796 11.2422 58.6582 11.3398C58.4434 11.431 58.2122 11.4766 57.9648 11.4766C57.7174 11.4766 57.4831 11.431 57.2617 11.3398C57.0469 11.2422 56.8581 11.1152 56.6953 10.959C56.5391 10.7962 56.4121 10.6074 56.3145 10.3926C56.2233 10.1777 56.1777 9.94661 56.1777 9.69922C56.1777 9.45833 56.2233 9.23047 56.3145 9.01562C56.4121 8.79427 56.5391 8.60547 56.6953 8.44922C56.8581 8.28646 57.0469 8.15951 57.2617 8.06836C57.4831 7.9707 57.7174 7.92188 57.9648 7.92188C58.2122 7.92188 58.4434 7.9707 58.6582 8.06836C58.8796 8.15951 59.0716 8.28646 59.2344 8.44922C59.3971 8.60547 59.5241 8.79427 59.6152 9.01562C59.7129 9.23047 59.7617 9.45833 59.7617 9.69922ZM59.3027 23H56.6172V12.541H59.3027V23ZM71.8125 17.6777C71.8125 18.498 71.6725 19.2467 71.3926 19.9238C71.1126 20.6009 70.7318 21.1836 70.25 21.6719C69.7682 22.1536 69.2018 22.528 68.5508 22.7949C67.9062 23.0618 67.2129 23.1953 66.4707 23.1953C65.735 23.1953 65.0417 23.0586 64.3906 22.7852C63.7461 22.5117 63.1797 22.1309 62.6914 21.6426C62.2096 21.1543 61.8288 20.5749 61.5488 19.9043C61.2689 19.2272 61.1289 18.485 61.1289 17.6777V8.38086H63.8047V13.2637C63.9479 13.0814 64.1204 12.9186 64.3223 12.7754C64.5306 12.6322 64.752 12.515 64.9863 12.4238C65.2272 12.3327 65.4746 12.2643 65.7285 12.2188C65.9824 12.1667 66.2298 12.1406 66.4707 12.1406C67.2129 12.1406 67.9062 12.2806 68.5508 12.5605C69.2018 12.834 69.7682 13.2181 70.25 13.7129C70.7318 14.2077 71.1126 14.7936 71.3926 15.4707C71.6725 16.1413 71.8125 16.877 71.8125 17.6777ZM69.127 17.6777C69.127 17.2741 69.0553 16.8997 68.9121 16.5547C68.7754 16.2031 68.5866 15.9004 68.3457 15.6465C68.1048 15.3926 67.8216 15.194 67.4961 15.0508C67.1771 14.9076 66.8353 14.8359 66.4707 14.8359C66.1061 14.8359 65.7611 14.9173 65.4355 15.0801C65.1165 15.2363 64.8366 15.4479 64.5957 15.7148C64.3548 15.9753 64.166 16.278 64.0293 16.623C63.8926 16.9616 63.8242 17.3132 63.8242 17.6777C63.8242 18.0814 63.8926 18.4557 64.0293 18.8008C64.166 19.1458 64.3548 19.4453 64.5957 19.6992C64.8366 19.9531 65.1165 20.1549 65.4355 20.3047C65.7611 20.4479 66.1061 20.5195 66.4707 20.5195C66.8353 20.5195 67.1771 20.4479 67.4961 20.3047C67.8216 20.1549 68.1048 19.9531 68.3457 19.6992C68.5866 19.4453 68.7754 19.1458 68.9121 18.8008C69.0553 18.4557 69.127 18.0814 69.127 17.6777ZM75.9629 23H73.2969V12.541H73.9414L74.8203 13.7812C75.25 13.3906 75.7383 13.0911 76.2852 12.8828C76.832 12.668 77.3984 12.5605 77.9844 12.5605H80.3379V15.2168H77.9844C77.7044 15.2168 77.4408 15.2689 77.1934 15.373C76.946 15.4772 76.7311 15.6204 76.5488 15.8027C76.3665 15.985 76.2233 16.1999 76.1191 16.4473C76.015 16.6947 75.9629 16.9583 75.9629 17.2383V23ZM84.7227 9.69922C84.7227 9.94661 84.6738 10.1777 84.5762 10.3926C84.485 10.6074 84.3581 10.7962 84.1953 10.959C84.0326 11.1152 83.8405 11.2422 83.6191 11.3398C83.4043 11.431 83.1732 11.4766 82.9258 11.4766C82.6784 11.4766 82.444 11.431 82.2227 11.3398C82.0078 11.2422 81.819 11.1152 81.6562 10.959C81.5 10.7962 81.373 10.6074 81.2754 10.3926C81.1842 10.1777 81.1387 9.94661 81.1387 9.69922C81.1387 9.45833 81.1842 9.23047 81.2754 9.01562C81.373 8.79427 81.5 8.60547 81.6562 8.44922C81.819 8.28646 82.0078 8.15951 82.2227 8.06836C82.444 7.9707 82.6784 7.92188 82.9258 7.92188C83.1732 7.92188 83.4043 7.9707 83.6191 8.06836C83.8405 8.15951 84.0326 8.28646 84.1953 8.44922C84.3581 8.60547 84.485 8.79427 84.5762 9.01562C84.6738 9.23047 84.7227 9.45833 84.7227 9.69922ZM84.2637 23H81.5781V12.541H84.2637V23ZM91.5488 23C90.9043 23 90.2988 22.8796 89.7324 22.6387C89.166 22.3913 88.668 22.056 88.2383 21.6328C87.8151 21.2031 87.4798 20.7051 87.2324 20.1387C86.9915 19.5723 86.8711 18.9668 86.8711 18.3223V15.2168H85.5723V12.5605H86.8711V8.38086H89.5273V12.5605H93.5703V15.2168H89.5273V18.3223C89.5273 18.6022 89.5794 18.8659 89.6836 19.1133C89.7878 19.3542 89.931 19.5658 90.1133 19.748C90.2956 19.9303 90.5104 20.0768 90.7578 20.1875C91.0052 20.2917 91.2689 20.3438 91.5488 20.3438H93.5703V23H91.5488ZM99.2344 20.4414C99.3385 20.474 99.4427 20.4967 99.5469 20.5098C99.651 20.5163 99.7552 20.5195 99.8594 20.5195C100.12 20.5195 100.37 20.4837 100.611 20.4121C100.852 20.3405 101.077 20.2396 101.285 20.1094C101.5 19.9727 101.689 19.8099 101.852 19.6211C102.021 19.4258 102.158 19.2109 102.262 18.9766L104.215 20.9395C103.967 21.291 103.681 21.6068 103.355 21.8867C103.036 22.1667 102.688 22.4043 102.311 22.5996C101.939 22.7949 101.546 22.9414 101.129 23.0391C100.719 23.1432 100.296 23.1953 99.8594 23.1953C99.1237 23.1953 98.4303 23.0586 97.7793 22.7852C97.1348 22.5117 96.5684 22.1309 96.0801 21.6426C95.5983 21.1543 95.2174 20.5749 94.9375 19.9043C94.6576 19.2272 94.5176 18.485 94.5176 17.6777C94.5176 16.8509 94.6576 16.0957 94.9375 15.4121C95.2174 14.7285 95.5983 14.1458 96.0801 13.6641C96.5684 13.1823 97.1348 12.8079 97.7793 12.541C98.4303 12.2741 99.1237 12.1406 99.8594 12.1406C100.296 12.1406 100.722 12.1927 101.139 12.2969C101.555 12.401 101.949 12.5508 102.32 12.7461C102.698 12.9414 103.049 13.1823 103.375 13.4688C103.701 13.7487 103.987 14.0645 104.234 14.416L99.2344 20.4414ZM100.602 14.9434C100.478 14.8978 100.354 14.8685 100.23 14.8555C100.113 14.8424 99.9896 14.8359 99.8594 14.8359C99.4948 14.8359 99.1497 14.9043 98.8242 15.041C98.5052 15.1712 98.2253 15.36 97.9844 15.6074C97.75 15.8548 97.5645 16.1543 97.4277 16.5059C97.291 16.8509 97.2227 17.2415 97.2227 17.6777C97.2227 17.7754 97.2259 17.8861 97.2324 18.0098C97.2454 18.1335 97.2617 18.2604 97.2812 18.3906C97.3073 18.5143 97.3366 18.6348 97.3691 18.752C97.4017 18.8691 97.444 18.9733 97.4961 19.0645L100.602 14.9434ZM114.645 14.6211L112.691 16.584C112.594 16.3105 112.46 16.0664 112.291 15.8516C112.122 15.6302 111.93 15.4447 111.715 15.2949C111.507 15.1452 111.279 15.0312 111.031 14.9531C110.784 14.875 110.53 14.8359 110.27 14.8359C109.905 14.8359 109.56 14.9108 109.234 15.0605C108.915 15.2103 108.635 15.4219 108.395 15.6953C108.16 15.9622 107.975 16.2812 107.838 16.6523C107.701 17.0234 107.633 17.4336 107.633 17.8828C107.633 18.2474 107.701 18.5892 107.838 18.9082C107.975 19.2272 108.16 19.5072 108.395 19.748C108.635 19.9889 108.915 20.1777 109.234 20.3145C109.56 20.4512 109.905 20.5195 110.27 20.5195C110.53 20.5195 110.781 20.4837 111.021 20.4121C111.262 20.3405 111.487 20.2396 111.695 20.1094C111.91 19.9727 112.099 19.8099 112.262 19.6211C112.431 19.4258 112.568 19.2109 112.672 18.9766L114.625 20.9395C114.378 21.291 114.091 21.6068 113.766 21.8867C113.447 22.1667 113.098 22.4043 112.721 22.5996C112.35 22.7949 111.956 22.9414 111.539 23.0391C111.129 23.1432 110.706 23.1953 110.27 23.1953C109.534 23.1953 108.84 23.0586 108.189 22.7852C107.545 22.5052 106.979 22.1243 106.49 21.6426C106.008 21.1608 105.628 20.5977 105.348 19.9531C105.068 19.3086 104.928 18.6185 104.928 17.8828C104.928 17.082 105.068 16.3333 105.348 15.6367C105.628 14.9401 106.008 14.3346 106.49 13.8203C106.979 13.2995 107.545 12.8893 108.189 12.5898C108.84 12.2904 109.534 12.1406 110.27 12.1406C110.706 12.1406 111.132 12.196 111.549 12.3066C111.972 12.4173 112.372 12.5801 112.75 12.7949C113.134 13.0033 113.486 13.2604 113.805 13.5664C114.13 13.8724 114.41 14.224 114.645 14.6211ZM118.619 23H115.953V8.38086H118.619V13C118.938 12.7591 119.267 12.5898 119.605 12.4922C119.944 12.388 120.289 12.3359 120.641 12.3359C121.285 12.3359 121.891 12.4596 122.457 12.707C123.023 12.9479 123.515 13.2832 123.932 13.7129C124.355 14.1361 124.687 14.6341 124.928 15.207C125.175 15.7734 125.299 16.3789 125.299 17.0234V23H122.613V17.0234H122.633C122.633 16.75 122.581 16.4928 122.477 16.252C122.372 16.0046 122.229 15.7897 122.047 15.6074C121.865 15.4251 121.653 15.2819 121.412 15.1777C121.171 15.0736 120.914 15.0215 120.641 15.0215C120.361 15.0215 120.097 15.0736 119.85 15.1777C119.602 15.2819 119.387 15.4251 119.205 15.6074C119.023 15.7897 118.88 16.0046 118.775 16.252C118.671 16.4928 118.619 16.75 118.619 17.0234V23Z" fill="white"/>
<path d="M13.7228 8.24379C14.1254 8.47443 14.3994 8.58853 14.6255 7.9186C14.3587 4.2538 15.8406 2.06438 20.4752 2.53485C20.7303 2.48653 21.4097 2.5953 21.053 1.9206C16.9283 -0.700465 14.3204 1.71183 14.0117 1.9206C12.8679 2.90803 12.0211 5.35555 13.7228 8.24379Z" fill="white"/>
<path d="M21.4563 6.2467C21.2398 6.43474 21.1367 6.60215 21.6605 6.65549C24.3692 6.40857 24.0872 8.00559 23.4775 9.80466C23.4595 10.0504 23.3073 10.3503 23.7063 10.1466C24.4264 9.0654 24.2959 7.98418 25.5778 6.90296C28.2064 4.20067 31.154 2.24209 33.993 0.217002C34.031 0.0171961 33.9119 -0.0254768 33.7121 0.0126055C31.0865 1.71165 28.4608 3.72859 25.8352 5.10975L23.3202 5.76126L21.4563 6.2467Z" fill="white"/>
<path d="M19.4105 10.297C19.6239 9.96979 19.2195 9.74108 18.9892 10.2203C18.5487 10.7832 18.2885 11.5333 18.4275 12.8264C19.0038 15.5548 19.3062 17.9407 18.5321 18.9802C16.8986 21.6365 13.4575 23.4955 11.1761 26.2654C10.6182 27.2333 10.0555 28.1732 9.56755 29.5613L8.87816 32.244C9.02925 32.5893 9.14274 32.4077 9.26115 32.2951C10.2342 27.2096 14.0495 25.3425 17.5083 23.0717C19.5737 21.4122 22.2913 18.9962 20.4446 15.7646C19.9006 14.0346 18.246 12.8207 19.4105 10.297V10.297Z" fill="white"/>
<path d="M13.2655 12.8615C10.2778 9.80916 5.2888 9.75297 1.21392 7.54719C0.41607 7.12449 -0.519295 6.89822 0.3458 8.33923L3.25656 15.8253C5.67368 19.4466 8.0908 18.491 10.5079 18.5846C11.4495 17.6267 10.8489 16.834 9.89513 16.745C4.85772 18.7853 4.31537 13.0737 2.18417 10.1021C2.0192 9.75612 1.67777 9.30415 2.8225 9.74445C5.99385 11.4467 9.00227 10.9019 11.8612 13.8579C12.4566 14.3602 13.6838 13.8206 13.2655 12.8615V12.8615Z" fill="white"/>
</svg>
