<svg width="128" height="33" viewBox="0 0 128 33" fill="none" xmlns="http://www.w3.org/2000/svg">
<path d="M40.1562 15.6211L38.2031 17.584C38.1055 17.3105 37.972 17.0664 37.8027 16.8516C37.6335 16.6302 37.4414 16.4447 37.2266 16.2949C37.0182 16.1452 36.7904 16.0312 36.543 15.9531C36.2956 15.875 36.0417 15.8359 35.7812 15.8359C35.4167 15.8359 35.0716 15.9108 34.7461 16.0605C34.4271 16.2103 34.1471 16.4219 33.9062 16.6953C33.6719 16.9622 33.4863 17.2812 33.3496 17.6523C33.2129 18.0234 33.1445 18.4336 33.1445 18.8828C33.1445 19.2474 33.2129 19.5892 33.3496 19.9082C33.4863 20.2272 33.6719 20.5072 33.9062 20.748C34.1471 20.9889 34.4271 21.1777 34.7461 21.3145C35.0716 21.4512 35.4167 21.5195 35.7812 21.5195C36.0417 21.5195 36.2923 21.4837 36.5332 21.4121C36.7741 21.3405 36.9987 21.2396 37.207 21.1094C37.4219 20.9727 37.6107 20.8099 37.7734 20.6211C37.9427 20.4258 38.0794 20.2109 38.1836 19.9766L40.1367 21.9395C39.8893 22.291 39.6029 22.6068 39.2773 22.8867C38.9583 23.1667 38.61 23.4043 38.2324 23.5996C37.8613 23.7949 37.4674 23.9414 37.0508 24.0391C36.6406 24.1432 36.2174 24.1953 35.7812 24.1953C35.0456 24.1953 34.3522 24.0586 33.7012 23.7852C33.0566 23.5052 32.4902 23.1243 32.002 22.6426C31.5202 22.1608 31.1393 21.5977 30.8594 20.9531C30.5794 20.3086 30.4395 19.6185 30.4395 18.8828C30.4395 18.082 30.5794 17.3333 30.8594 16.6367C31.1393 15.9401 31.5202 15.3346 32.002 14.8203C32.4902 14.2995 33.0566 13.8893 33.7012 13.5898C34.3522 13.2904 35.0456 13.1406 35.7812 13.1406C36.2174 13.1406 36.6439 13.196 37.0605 13.3066C37.4837 13.4173 37.8841 13.5801 38.2617 13.7949C38.6458 14.0033 38.9974 14.2604 39.3164 14.5664C39.6419 14.8724 39.9219 15.224 40.1562 15.6211ZM51.416 18.6777C51.416 19.459 51.276 20.1882 50.9961 20.8652C50.7161 21.5358 50.3353 22.1185 49.8535 22.6133C49.3717 23.1016 48.8053 23.4889 48.1543 23.7754C47.5098 24.0553 46.8164 24.1953 46.0742 24.1953C45.3385 24.1953 44.6452 24.0553 43.9941 23.7754C43.3496 23.4889 42.7832 23.1016 42.2949 22.6133C41.8132 22.1185 41.4323 21.5358 41.1523 20.8652C40.8724 20.1882 40.7324 19.459 40.7324 18.6777C40.7324 17.8835 40.8724 17.1478 41.1523 16.4707C41.4323 15.7936 41.8132 15.2109 42.2949 14.7227C42.7832 14.2279 43.3496 13.8405 43.9941 13.5605C44.6452 13.2806 45.3385 13.1406 46.0742 13.1406C46.8164 13.1406 47.5098 13.2741 48.1543 13.541C48.8053 13.8014 49.3717 14.1758 49.8535 14.6641C50.3353 15.1458 50.7161 15.7285 50.9961 16.4121C51.276 17.0892 51.416 17.8444 51.416 18.6777ZM48.7305 18.6777C48.7305 18.248 48.6589 17.8607 48.5156 17.5156C48.3789 17.1641 48.1901 16.8646 47.9492 16.6172C47.7083 16.3633 47.4251 16.1712 47.0996 16.041C46.7806 15.9043 46.4388 15.8359 46.0742 15.8359C45.7096 15.8359 45.3646 15.9043 45.0391 16.041C44.7201 16.1712 44.4401 16.3633 44.1992 16.6172C43.9648 16.8646 43.7793 17.1641 43.6426 17.5156C43.5059 17.8607 43.4375 18.248 43.4375 18.6777C43.4375 19.0814 43.5059 19.4557 43.6426 19.8008C43.7793 20.1458 43.9648 20.4453 44.1992 20.6992C44.4401 20.9531 44.7201 21.1549 45.0391 21.3047C45.3646 21.4479 45.7096 21.5195 46.0742 21.5195C46.4388 21.5195 46.7806 21.4512 47.0996 21.3145C47.4251 21.1777 47.7083 20.9857 47.9492 20.7383C48.1901 20.4909 48.3789 20.1914 48.5156 19.8398C48.6589 19.4883 48.7305 19.1009 48.7305 18.6777ZM55.5762 24H52.8906V9.38086H55.5762V24ZM60.7617 10.6992C60.7617 10.9466 60.7129 11.1777 60.6152 11.3926C60.5241 11.6074 60.3971 11.7962 60.2344 11.959C60.0716 12.1152 59.8796 12.2422 59.6582 12.3398C59.4434 12.431 59.2122 12.4766 58.9648 12.4766C58.7174 12.4766 58.4831 12.431 58.2617 12.3398C58.0469 12.2422 57.8581 12.1152 57.6953 11.959C57.5391 11.7962 57.4121 11.6074 57.3145 11.3926C57.2233 11.1777 57.1777 10.9466 57.1777 10.6992C57.1777 10.4583 57.2233 10.2305 57.3145 10.0156C57.4121 9.79427 57.5391 9.60547 57.6953 9.44922C57.8581 9.28646 58.0469 9.15951 58.2617 9.06836C58.4831 8.9707 58.7174 8.92188 58.9648 8.92188C59.2122 8.92188 59.4434 8.9707 59.6582 9.06836C59.8796 9.15951 60.0716 9.28646 60.2344 9.44922C60.3971 9.60547 60.5241 9.79427 60.6152 10.0156C60.7129 10.2305 60.7617 10.4583 60.7617 10.6992ZM60.3027 24H57.6172V13.541H60.3027V24ZM72.8125 18.6777C72.8125 19.498 72.6725 20.2467 72.3926 20.9238C72.1126 21.6009 71.7318 22.1836 71.25 22.6719C70.7682 23.1536 70.2018 23.528 69.5508 23.7949C68.9062 24.0618 68.2129 24.1953 67.4707 24.1953C66.735 24.1953 66.0417 24.0586 65.3906 23.7852C64.7461 23.5117 64.1797 23.1309 63.6914 22.6426C63.2096 22.1543 62.8288 21.5749 62.5488 20.9043C62.2689 20.2272 62.1289 19.485 62.1289 18.6777V9.38086H64.8047V14.2637C64.9479 14.0814 65.1204 13.9186 65.3223 13.7754C65.5306 13.6322 65.752 13.515 65.9863 13.4238C66.2272 13.3327 66.4746 13.2643 66.7285 13.2188C66.9824 13.1667 67.2298 13.1406 67.4707 13.1406C68.2129 13.1406 68.9062 13.2806 69.5508 13.5605C70.2018 13.834 70.7682 14.2181 71.25 14.7129C71.7318 15.2077 72.1126 15.7936 72.3926 16.4707C72.6725 17.1413 72.8125 17.877 72.8125 18.6777ZM70.127 18.6777C70.127 18.2741 70.0553 17.8997 69.9121 17.5547C69.7754 17.2031 69.5866 16.9004 69.3457 16.6465C69.1048 16.3926 68.8216 16.194 68.4961 16.0508C68.1771 15.9076 67.8353 15.8359 67.4707 15.8359C67.1061 15.8359 66.7611 15.9173 66.4355 16.0801C66.1165 16.2363 65.8366 16.4479 65.5957 16.7148C65.3548 16.9753 65.166 17.278 65.0293 17.623C64.8926 17.9616 64.8242 18.3132 64.8242 18.6777C64.8242 19.0814 64.8926 19.4557 65.0293 19.8008C65.166 20.1458 65.3548 20.4453 65.5957 20.6992C65.8366 20.9531 66.1165 21.1549 66.4355 21.3047C66.7611 21.4479 67.1061 21.5195 67.4707 21.5195C67.8353 21.5195 68.1771 21.4479 68.4961 21.3047C68.8216 21.1549 69.1048 20.9531 69.3457 20.6992C69.5866 20.4453 69.7754 20.1458 69.9121 19.8008C70.0553 19.4557 70.127 19.0814 70.127 18.6777ZM76.9629 24H74.2969V13.541H74.9414L75.8203 14.7812C76.25 14.3906 76.7383 14.0911 77.2852 13.8828C77.832 13.668 78.3984 13.5605 78.9844 13.5605H81.3379V16.2168H78.9844C78.7044 16.2168 78.4408 16.2689 78.1934 16.373C77.946 16.4772 77.7311 16.6204 77.5488 16.8027C77.3665 16.985 77.2233 17.1999 77.1191 17.4473C77.015 17.6947 76.9629 17.9583 76.9629 18.2383V24ZM85.7227 10.6992C85.7227 10.9466 85.6738 11.1777 85.5762 11.3926C85.485 11.6074 85.3581 11.7962 85.1953 11.959C85.0326 12.1152 84.8405 12.2422 84.6191 12.3398C84.4043 12.431 84.1732 12.4766 83.9258 12.4766C83.6784 12.4766 83.444 12.431 83.2227 12.3398C83.0078 12.2422 82.819 12.1152 82.6562 11.959C82.5 11.7962 82.373 11.6074 82.2754 11.3926C82.1842 11.1777 82.1387 10.9466 82.1387 10.6992C82.1387 10.4583 82.1842 10.2305 82.2754 10.0156C82.373 9.79427 82.5 9.60547 82.6562 9.44922C82.819 9.28646 83.0078 9.15951 83.2227 9.06836C83.444 8.9707 83.6784 8.92188 83.9258 8.92188C84.1732 8.92188 84.4043 8.9707 84.6191 9.06836C84.8405 9.15951 85.0326 9.28646 85.1953 9.44922C85.3581 9.60547 85.485 9.79427 85.5762 10.0156C85.6738 10.2305 85.7227 10.4583 85.7227 10.6992ZM85.2637 24H82.5781V13.541H85.2637V24ZM92.5488 24C91.9043 24 91.2988 23.8796 90.7324 23.6387C90.166 23.3913 89.668 23.056 89.2383 22.6328C88.8151 22.2031 88.4798 21.7051 88.2324 21.1387C87.9915 20.5723 87.8711 19.9668 87.8711 19.3223V16.2168H86.5723V13.5605H87.8711V9.38086H90.5273V13.5605H94.5703V16.2168H90.5273V19.3223C90.5273 19.6022 90.5794 19.8659 90.6836 20.1133C90.7878 20.3542 90.931 20.5658 91.1133 20.748C91.2956 20.9303 91.5104 21.0768 91.7578 21.1875C92.0052 21.2917 92.2689 21.3438 92.5488 21.3438H94.5703V24H92.5488ZM100.234 21.4414C100.339 21.474 100.443 21.4967 100.547 21.5098C100.651 21.5163 100.755 21.5195 100.859 21.5195C101.12 21.5195 101.37 21.4837 101.611 21.4121C101.852 21.3405 102.077 21.2396 102.285 21.1094C102.5 20.9727 102.689 20.8099 102.852 20.6211C103.021 20.4258 103.158 20.2109 103.262 19.9766L105.215 21.9395C104.967 22.291 104.681 22.6068 104.355 22.8867C104.036 23.1667 103.688 23.4043 103.311 23.5996C102.939 23.7949 102.546 23.9414 102.129 24.0391C101.719 24.1432 101.296 24.1953 100.859 24.1953C100.124 24.1953 99.4303 24.0586 98.7793 23.7852C98.1348 23.5117 97.5684 23.1309 97.0801 22.6426C96.5983 22.1543 96.2174 21.5749 95.9375 20.9043C95.6576 20.2272 95.5176 19.485 95.5176 18.6777C95.5176 17.8509 95.6576 17.0957 95.9375 16.4121C96.2174 15.7285 96.5983 15.1458 97.0801 14.6641C97.5684 14.1823 98.1348 13.8079 98.7793 13.541C99.4303 13.2741 100.124 13.1406 100.859 13.1406C101.296 13.1406 101.722 13.1927 102.139 13.2969C102.555 13.401 102.949 13.5508 103.32 13.7461C103.698 13.9414 104.049 14.1823 104.375 14.4688C104.701 14.7487 104.987 15.0645 105.234 15.416L100.234 21.4414ZM101.602 15.9434C101.478 15.8978 101.354 15.8685 101.23 15.8555C101.113 15.8424 100.99 15.8359 100.859 15.8359C100.495 15.8359 100.15 15.9043 99.8242 16.041C99.5052 16.1712 99.2253 16.36 98.9844 16.6074C98.75 16.8548 98.5645 17.1543 98.4277 17.5059C98.291 17.8509 98.2227 18.2415 98.2227 18.6777C98.2227 18.7754 98.2259 18.8861 98.2324 19.0098C98.2454 19.1335 98.2617 19.2604 98.2812 19.3906C98.3073 19.5143 98.3366 19.6348 98.3691 19.752C98.4017 19.8691 98.444 19.9733 98.4961 20.0645L101.602 15.9434ZM115.645 15.6211L113.691 17.584C113.594 17.3105 113.46 17.0664 113.291 16.8516C113.122 16.6302 112.93 16.4447 112.715 16.2949C112.507 16.1452 112.279 16.0312 112.031 15.9531C111.784 15.875 111.53 15.8359 111.27 15.8359C110.905 15.8359 110.56 15.9108 110.234 16.0605C109.915 16.2103 109.635 16.4219 109.395 16.6953C109.16 16.9622 108.975 17.2812 108.838 17.6523C108.701 18.0234 108.633 18.4336 108.633 18.8828C108.633 19.2474 108.701 19.5892 108.838 19.9082C108.975 20.2272 109.16 20.5072 109.395 20.748C109.635 20.9889 109.915 21.1777 110.234 21.3145C110.56 21.4512 110.905 21.5195 111.27 21.5195C111.53 21.5195 111.781 21.4837 112.021 21.4121C112.262 21.3405 112.487 21.2396 112.695 21.1094C112.91 20.9727 113.099 20.8099 113.262 20.6211C113.431 20.4258 113.568 20.2109 113.672 19.9766L115.625 21.9395C115.378 22.291 115.091 22.6068 114.766 22.8867C114.447 23.1667 114.098 23.4043 113.721 23.5996C113.35 23.7949 112.956 23.9414 112.539 24.0391C112.129 24.1432 111.706 24.1953 111.27 24.1953C110.534 24.1953 109.84 24.0586 109.189 23.7852C108.545 23.5052 107.979 23.1243 107.49 22.6426C107.008 22.1608 106.628 21.5977 106.348 20.9531C106.068 20.3086 105.928 19.6185 105.928 18.8828C105.928 18.082 106.068 17.3333 106.348 16.6367C106.628 15.9401 107.008 15.3346 107.49 14.8203C107.979 14.2995 108.545 13.8893 109.189 13.5898C109.84 13.2904 110.534 13.1406 111.27 13.1406C111.706 13.1406 112.132 13.196 112.549 13.3066C112.972 13.4173 113.372 13.5801 113.75 13.7949C114.134 14.0033 114.486 14.2604 114.805 14.5664C115.13 14.8724 115.41 15.224 115.645 15.6211ZM119.619 24H116.953V9.38086H119.619V14C119.938 13.7591 120.267 13.5898 120.605 13.4922C120.944 13.388 121.289 13.3359 121.641 13.3359C122.285 13.3359 122.891 13.4596 123.457 13.707C124.023 13.9479 124.515 14.2832 124.932 14.7129C125.355 15.1361 125.687 15.6341 125.928 16.207C126.175 16.7734 126.299 17.3789 126.299 18.0234V24H123.613V18.0234H123.633C123.633 17.75 123.581 17.4928 123.477 17.252C123.372 17.0046 123.229 16.7897 123.047 16.6074C122.865 16.4251 122.653 16.2819 122.412 16.1777C122.171 16.0736 121.914 16.0215 121.641 16.0215C121.361 16.0215 121.097 16.0736 120.85 16.1777C120.602 16.2819 120.387 16.4251 120.205 16.6074C120.023 16.7897 119.88 17.0046 119.775 17.252C119.671 17.4928 119.619 17.75 119.619 18.0234V24Z" fill="white"/>
<path d="M14.7228 9.24379C15.1254 9.47443 15.3994 9.58853 15.6255 8.9186C15.3587 5.2538 16.8406 3.06438 21.4752 3.53485C21.7303 3.48653 22.4097 3.5953 22.053 2.9206C17.9283 0.299535 15.3204 2.71183 15.0117 2.9206C13.8679 3.90803 13.0211 6.35555 14.7228 9.24379Z" fill="white"/>
<path d="M22.4563 7.2467C22.2398 7.43474 22.1367 7.60215 22.6605 7.65549C25.3692 7.40857 25.0872 9.00559 24.4775 10.8047C24.4595 11.0504 24.3073 11.3503 24.7063 11.1466C25.4264 10.0654 25.2959 8.98418 26.5778 7.90296C29.2064 5.20067 32.154 3.24209 34.993 1.217C35.031 1.0172 34.9119 0.974523 34.7121 1.01261C32.0865 2.71165 29.4608 4.72859 26.8352 6.10975L24.3202 6.76126L22.4563 7.2467Z" fill="white" stroke="white"/>
<path d="M19.4105 10.297C19.6239 9.96979 19.2195 9.74108 18.9892 10.2203C18.5487 10.7832 18.2885 11.5333 18.4275 12.8264C19.0038 15.5548 19.3062 17.9407 18.5321 18.9802C16.8986 21.6365 13.4575 23.4955 11.1761 26.2654C10.6182 27.2333 10.0555 28.1732 9.56755 29.5613L8.87816 32.244C9.02925 32.5893 9.14274 32.4077 9.26115 32.2951C10.2342 27.2096 14.0495 25.3425 17.5083 23.0717C19.5737 21.4122 22.2913 18.9962 20.4446 15.7646C19.9006 14.0346 18.246 12.8207 19.4105 10.297V10.297Z" fill="white" stroke="white"/>
<path d="M14.2655 13.8615C11.2778 10.8092 6.2888 10.753 2.21392 8.54719C1.41607 8.12449 0.480705 7.89822 1.3458 9.33923L4.25656 16.8253C6.67368 20.4466 9.0908 19.491 11.5079 19.5846C12.4495 18.6267 11.8489 17.834 10.8951 17.745C5.85772 19.7853 5.31537 14.0737 3.18417 11.1021C3.0192 10.7561 2.67777 10.3042 3.8225 10.7445C6.99385 12.4467 10.0023 11.9019 12.8612 14.8579C13.4566 15.3602 14.6838 14.8206 14.2655 13.8615V13.8615Z" fill="white" stroke="white"/>
</svg>
